<svg xmlns="http://www.w3.org/2000/svg" viewBox="0 0 400 400"><title>Artboard 1</title><path d="M213.7,30.79V35c-.54,1.78-1.67,3.14-2.83,2.47a.6.6,0,0,0-.11-.06c-2.57-1.7-7.76-2.68-13-2.73-5.06,0-10.18.78-13.18,2.64-.05,0-.07,0-.1,0-.84.55-2-.29-2.71-1.69a.26.26,0,0,1,0-.08V30.43c.1-.14.19-.31.3-.47,5.14-7,26.7-6.34,31.27.15a2,2,0,0,1,.32.49A.44.44,0,0,1,213.7,30.79Z" style="fill:#7c4c2f"/><path d="M186,30.7c-5-2.52-3.73-12.88,6.15-11.31-4.43,3.31,1.19,5.51,5.93,6.31Z" style="fill:#7c4c2f"/><polygon points="220.66 94.34 197.56 111.76 173.34 93.68 183.15 77.92 184.75 76.05 185.87 70.26 210.02 70.26 210.7 76 212.25 77.92 220.66 94.34" style="fill:#f7bb96"/><path d="M210.31,74.05c-.95,1-1.68,1.56-1.68,1.56-2.83,2.56-7.68,4.63-10.9,4.63s-8.13-2.07-10.91-4.63c-.61-.56-1.18-1.06-1.67-1.56l.72-4.5H210Z" style="opacity:0.2"/><path d="M181.74,61.89c0,3.07,1.13,6.58,2.53,7.84.75.68,1.63,1.46,2.55,2.3,2.8,2.53,7.69,4.59,10.9,4.59s8.1-2.05,10.9-4.58c0,0,1.15-1,2.55-2.29S213.7,65,213.7,61.9V34h-32Z" style="fill:#f7bb96"/><polygon points="181.71 30.43 181.71 35.57 181.71 46.99 181.74 47.07 183.13 49.89 183.13 40.72 184.55 43.34 184.55 37.3 184.55 34.03 184.55 33.49 182.01 29.96 181.71 30.43" style="fill:#8a5a3d"/><path d="M283.13,7c0-5.39-11.61-8.65-15.4-6.83-3.11,1.5-6.36,9.66-6,12.44s3.17,5.19,4.37,6.18a2.56,2.56,0,0,1,1.21,1.83c0,.12-10.84,28.05-12.85,37.41-1,4.59-25.05,27.13-25.05,27.13l-4.6,19.71,5.9,14.62s37.68-47.1,40-52.23c4.49-9.93,7.14-46.74,7.52-47.68C279.86,15.37,283.13,11.5,283.13,7Z" style="fill:#f7bb96"/><path d="M112.32,7c0-5.39,11.6-8.65,15.4-6.83,3.11,1.5,6.36,9.66,6,12.44s-3.19,5.19-4.39,6.18a2.61,2.61,0,0,0-1.22,1.83c0,.12,10.84,28.05,12.86,37.41C142,62.58,166,85.12,166,85.12l4.57,19.71-5.87,14.62s-37.69-47.1-40-52.23c-4.51-9.93-7.16-46.74-7.52-47.68C115.59,15.37,112.32,11.5,112.32,7Z" style="fill:#f7bb96"/><path d="M163.46,195.18s.47,6.82,1,16.95c.12,1.23.18,2.53.23,3.94,1,15.62,1.45,28.89,1.66,36.27.41,14.77.76,28.26.76,34.6,0,1.13,0,2,0,2.66a2.73,2.73,0,0,1,0,.64c-.06.94-.13,2.3-.13,4.06-.22,8.95,0,26.85-.22,37.62a11.21,11.21,0,0,1-.07,1.59c0,1.71-.06,3.18-.11,4.36-.48,9.65.76,48,.76,48h21.71l2.25-52.39.12-1.59,1.47-34.78.12-2.49.18-5,.11-2.66,2.41-54.4,3.77.06,2.71,62.12L206.14,386h21.72s1.24-38.37.76-48c-.06-1.11-.12-2.34-.12-3.82,0-.76-.06-1.59-.06-2.42v-.41c-.06-1.7-.06-3.53-.06-5.53,0-5.89,0-12.71,0-18.78,0-4.88,0-9.41-.12-12.59,0-1.83-.06-3.19-.11-4.07-.19-2.82.17-19.36.7-37.9.35-12.43,1-25.68,1.65-36.33.05-1.36.12-2.64.23-3.94.6-10.07,1.06-16.95,1.06-16.95Z" style="fill:#153648"/><path d="M231.74,195.18s-.46,6.88-1.06,16.95c-.11,1.3-.18,2.58-.23,3.94-.65,10.65-1.3,23.9-1.65,36.33-.53,18.54-.89,35.08-.7,37.9.05.88.11,2.24.11,4.07.12,3.18.12,7.71.12,12.59,0,6.07,0,12.89,0,18.78.06,2,.06,3.83.06,5.53v.41c0,.83.06,1.66.06,2.42,0,1.48.06,2.71.12,3.82.48,9.66-.76,48-.76,48H217.49c-.29-20.24-.94-65.62-.81-73.28,2.35-.88,4.94-11.06,6.11-15.48,4.66-17.95,5-56.21,2.71-81.12-.19-1.36-.3-2.71-.41-3.94-.87-7.66-2-13.71-3.29-16.95Z" style="opacity:0.2"/><path d="M192.91,297.16l-3.82,88.76h-7c-.34-20.25-1-65.64-.94-73.29C183.84,311.81,188.67,305.79,192.91,297.16Z" style="opacity:0.2"/><path d="M225.15,378.44c0,5.07-3.7,12.54-8.26,12.54s-8.28-7.47-8.28-12.54,3.72-5.85,8.28-5.85S225.15,373.35,225.15,378.44Z" style="fill:#bebfc3"/><path d="M218.59,390s-.43-4.83,2.39-8.18,7.26-1.71,9.26,0-1.06,10.87-1.06,10.87Z" style="fill:#2d2d2d"/><path d="M215.86,390s.42-4.83-2.39-8.18-7.27-1.71-9.25,0,1.05,10.87,1.05,10.87Z" style="fill:#2d2d2d"/><path d="M230.24,395.47c0,4-6,4.15-13.35,4.15s-13.34-.19-13.34-4.15,5.95-7.23,13.34-7.23S230.24,391.49,230.24,395.47Z" style="fill:#989d97"/><rect x="203.55" y="396.42" width="26.69" height="3.2" style="fill:#2d2d2d"/><path d="M223.37,384.08H211.79a.6.6,0,1,1,0-1.2h11.58a.6.6,0,0,1,0,1.2Z" style="fill:#fff"/><path d="M221.94,386.84h-9.07a.6.6,0,1,1,0-1.2h9.07a.6.6,0,1,1,0,1.2Z" style="fill:#fff"/><path d="M170.08,378.44c0,5.07,3.69,12.54,8.24,12.54s8.28-7.47,8.28-12.54-3.7-5.85-8.28-5.85S170.08,373.35,170.08,378.44Z" style="fill:#bebfc3"/><path d="M176.64,390s.42-4.83-2.4-8.18-7.27-1.71-9.26,0,1.07,10.87,1.07,10.87Z" style="fill:#2d2d2d"/><path d="M179.36,390s-.42-4.83,2.4-8.18,7.26-1.71,9.24,0-1,10.87-1,10.87Z" style="fill:#2d2d2d"/><path d="M165,395.47c0,4,6,4.15,13.34,4.15s13.35-.19,13.35-4.15-6-7.23-13.35-7.23S165,391.49,165,395.47Z" style="fill:#989d97"/><rect x="164.98" y="396.42" width="26.69" height="3.2" style="fill:#2d2d2d"/><path d="M171.85,384.08h11.6a.6.6,0,1,0,0-1.2h-11.6a.6.6,0,0,0,0,1.2Z" style="fill:#fff"/><path d="M173.28,386.84h9.09a.6.6,0,1,0,0-1.2h-9.09a.6.6,0,0,0,0,1.2Z" style="fill:#fff"/><path d="M248.26,65.52l-9.21,8.33c-5.09,4.61-13,7.77-17.57,7.05l-8.36-1.3c-.64,16.07-6.75,16.58-15.19,16.58h-.81c-8.44,0-14.55-.51-15.19-16.58l-8.36,1.3c-4.62.72-12.31-2.44-17.2-7.05l-8.83-8.33L133.72,82.77l28.69,34.41c1,12.41-3.64,87.41-3.64,87.41h77.5L233,117.48l29-34.8Z" style="fill:#57bbbf"/><path d="M153.77,76.17c5.5,4.61,14.17,7.76,19.36,7l9-1.23c-.06-.76-.12-1.54-.15-2.39l-8.36,1.3c-4.62.72-12.31-2.44-17.2-7.05l-8.83-8.33-2.61,3.25Z" style="fill:#fff;opacity:0.30000000000000004"/><polygon points="262.01 82.69 259.87 80.03 230.37 115.46 233.73 204.59 236.27 204.59 232.97 117.48 262.01 82.69" style="opacity:0.2"/><path d="M213.7,30.79V47l-1.41,2.9V40.72l-1.42,2.62V33.49l2.41-3.38a2,2,0,0,1,.32.49A.44.44,0,0,1,213.7,30.79Z" style="fill:#8a5a3d"/><path d="M22,113.38c-.9,1.75-15.33,43.74-15.81,45.09-3,8.55,5.18,49.2,5.18,49.2a85.74,85.74,0,0,1-.9,10.3c-.86,5.48,9.33,18.77,10.93,16s-5.79-17.17-1.55-20.57c2.74.83,4.09,4.61,4.82,2.1.35-1.24-2.74-6.52-4.46-9.32,0,0-3.39-40.81-2.87-43.14,1.58-7.23,8.64-23.58,8.64-23.58l11.23-31.29C30,106.7,23.76,109.9,22,113.38Z" style="fill:#7a5136"/><path d="M74.27,110.84c.87-1.76,26.54-38,27.1-39.34S114,24.21,114,24.21a89.24,89.24,0,0,0-.21-10.34c-.49-5.51,4-12.7,8.1-10.06,2.78,1.79,1.28-1,5.27,2.64,2.81-.64,2.57,1.16,3.13,3.7.26,1.27-5.68,13.51-7.6,16.19,0,0-6.55,44.78-7.57,46.94-2,4.22-17.49,25.43-17.49,25.43L79,126.23C73.59,121.24,72.51,114.34,74.27,110.84Z" style="fill:#7a5136"/><path d="M69.56,329.22c-1.24,11.06-6.25,33-5.67,44.14a8,8,0,0,0,.2,1.71,37.25,37.25,0,0,0,.75,4.13c.59,2.69,1.42,5.76,2.07,8.59v0c.18.89.35,1.73.47,2.48a22.72,22.72,0,0,1,.35,2.3,11.43,11.43,0,0,1,.11,1.23c0,.13.06.23,0,.36s.06.52.06.76c0,1.53-2.47,4.12-3.94,4.65H55.48c-1.35-.53-3.59-3.23-3.59-4.65a10,10,0,0,1,.06-1.3v-.28c.06-.36.06-.77.11-1.19a4.11,4.11,0,0,1,.06-.82c.13-1.4.3-3.11.47-4.82.31-2.41.6-5.07.84-7.36.17-1.53.29-2.94.35-4.13a3.38,3.38,0,0,0,.06-.75c.58-19.78.22-69.52,0-87.41,0-.83,0-1.6,0-2.3v-4.24l16.94.3a28.79,28.79,0,0,1,.06,3.94c0,.7.07,1.42.07,2.3C70.91,297.8,70.55,320,69.56,329.22Z" style="fill:#7a5136"/><path d="M67.89,395c0,1.53-2.48,4.13-3.94,4.66H55.47c-1.36-.53-3.59-3.25-3.59-4.66,0-1.76.35-4.94.71-8.42.11,4.59,3.46,6.9,7.64,6.9,3.84,0,6-2.77,6.65-5.65A36.36,36.36,0,0,1,67.89,395Z" style="fill:#204347"/><path d="M64.22,398H55.15c-1.39-.55-3.63-3.25-3.78-4.8,0,.5,0,1,0,1.39,0,1.51,2.39,4.42,3.83,5h9.07c1.58-.57,4.23-3.35,4.23-5,0-.36-.08-.84-.1-1.25C68.07,395.05,65.72,397.51,64.22,398Z" style="opacity:0.30000000000000004"/><path d="M50.77,395c0,1.42-2.23,4.12-3.59,4.65H38.71c-1.46-.53-3.94-3.12-3.94-4.65,0-.35,0-.76,0-1.12v-.06a10.81,10.81,0,0,1,.12-1.17,18.33,18.33,0,0,1,.36-2.3c.1-.75.29-1.59.47-2.48v0c.64-2.83,1.41-5.9,2-8.59a37.6,37.6,0,0,0,.77-4.13,9.38,9.38,0,0,0,.18-1.71c.59-11.12-4.42-33.08-5.6-44.14-1-9.18-1.35-31.3-1.35-42.31v-2.3c.06-2.19.06-3.59.11-3.94l17-.3s0,1.53-.07,4.24v2.3c-.16,17.89-.53,67.63.07,87.41a4,4,0,0,0,0,.75c0,1.19.18,2.6.28,4.13.25,2.29.6,4.95.9,7.36v.23a7.64,7.64,0,0,1,.11,1c.12.84.19,1.66.24,2.42.18,1.3.23,2.47.3,3.41C50.72,394.15,50.77,394.56,50.77,395Z" style="fill:#7a5136"/><path d="M34.74,395c0,1.53,2.48,4.13,3.95,4.66h8.47c1.36-.53,3.58-3.25,3.58-4.66,0-1.76-.34-4.94-.7-8.42-.11,4.59-3.47,6.9-7.65,6.9-3.83,0-6-2.77-6.65-5.65A36.26,36.26,0,0,0,34.74,395Z" style="fill:#204347"/><path d="M64.73,67.4,60.3,56l-21.22.78L37.5,67.61l-9.83,1.32c.07,3,1.08,32,4.89,39.32H71.64c4.43-9.26,4.44-36.36,4.51-39.32Z" style="fill:#2d2d2d"/><path d="M47.65,398H38.59c-1.48-.52-3.83-3-4.13-4.66,0,.41-.09.89-.09,1.25,0,1.64,2.65,4.42,4.22,5h9.06c1.47-.57,3.85-3.48,3.85-5,0-.4,0-.89,0-1.39C51.31,394.78,49.07,397.48,47.65,398Z" style="opacity:0.30000000000000004"/><path d="M66,104.3c-3.58-.83-6.49-3.12-6.49-5.09V92.4H44.35v6.81c0,2-2.91,4.26-6.49,5.09-.8.19,6.59,5.71,14,5.66C58.89,109.92,66,104.3,66,104.3Z" style="fill:#7a5136"/><path d="M76.75,107l-.51.59L73,111.22,51.86,134.8,30.17,110.55,27,107a.33.33,0,0,0,.17,0l1.43-.34,3-.76,6.23-1.56H66L72.54,106l1.22.29,0,0,1.06.25Z" style="fill:#7a5136"/><path d="M59.47,92.4v2.24c-2.61,2.3-5.29,3.66-7.57,3.66S47,96.86,44.35,94.47V92.4Z" style="opacity:0.30000000000000004"/><path d="M27.68,68.93c0-16.76,10.86-27.44,24.24-27.44S76.15,52.17,76.15,68.93,65.3,81.5,51.92,81.5,27.68,85.68,27.68,68.93Z" style="fill:#2d2d2d"/><path d="M67.6,69.37c.54-1.18.68-2.18,1.5-2.23,1.39-.06-.84,11.56-2.34,12.65C66.07,78.22,67.6,69.37,67.6,69.37Z" style="fill:#7a5136"/><path d="M36.16,69.37c-.55-1.18-.68-2.18-1.51-2.23-1.38-.06.86,11.56,2.34,12.65C37.69,78.22,36.16,69.37,36.16,69.37Z" style="fill:#7a5136"/><path d="M68.4,61.31C68.06,58,67.63,47.6,51.91,47.6H51.8c-15.6.06-16,10.46-16.38,13.71S37.3,82.13,39.1,86.79s9,9.83,12.7,9.92h.08c3.66,0,11-5.26,12.83-9.93S68.75,64.61,68.4,61.31Z" style="fill:#7a5136"/><path d="M70.69,53V67H63.1a8.6,8.6,0,0,0-.59-2.2A17.44,17.44,0,0,1,61.45,67H59a7.48,7.48,0,0,0-.94-3.74A16.34,16.34,0,0,1,55.29,67H33.52V52.91c.7-1.7,3.38-3.18,4.75-4.13a11,11,0,0,1,2.49-2.24h21.9A69,69,0,0,1,70.69,53Z" style="fill:#2d2d2d"/><path d="M72.62,281.82c2.08-10.7,9.51-50.23,9.1-66.49a15.26,15.26,0,0,0,0-2.37v-.17c-.06-.36-.11-.71-.18-1.06H22.28l-.18,1.06V213c-.06.71-.11,1.53-.11,2.37-.49,17.55,6.93,62,8,68.42l0,.86v2.3c0,11.58.36,33.37,1.35,42.48.41,3.89,1.29,9.09,2.23,14.61,1.77,10.36,3.72,22.19,3.36,29.26a10.67,10.67,0,0,1-.23,1.81H50.65a4.69,4.69,0,0,1,0-.81c-.71-23.13-.12-84.77-.06-87.35V235.5h1.52s.06,50.64.06,51.41c0,2.58.66,64.22-.06,87.35a4.69,4.69,0,0,1-.05.81H65.83c0-.64-.16-1.29-.16-1.81-.42-7.18,1.64-19.13,3.41-29.67,1-5.36,1.83-10.41,2.23-14.2,1-9.11,1.36-30.9,1.36-42.48l0-2.24C72.64,283.58,72.64,282.61,72.62,281.82Z" style="fill:#232323"/><path d="M50.54,286.91V235.5l-2.3,51.41c-.05,2.58-.64,64.22.07,87.35a4.69,4.69,0,0,0,0,.81h1.36a3.92,3.92,0,0,0,.06-.81C50.48,351.13,50.54,289.49,50.54,286.91Z" style="opacity:0.2"/><path d="M70.43,161.8c.84-3.33,1.9-8.13,3.07-13.4,0-.21.82-3.26,1.88-7.49,0-.08,2.51-12.86,8.59-21.36C92.18,108.09,105,92.4,105,92.4L92.16,82s-15.43,19.38-19.58,20c-3.15.48-11.88-.41-11.88-.41v.05a14.07,14.07,0,0,1-1.1,2.69,11.24,11.24,0,0,1-2.9,3.92,6.88,6.88,0,0,1-2.83,1.56,5.89,5.89,0,0,1-2,.29,5.27,5.27,0,0,1-1.38-.16.31.31,0,0,1-.21,0,6.75,6.75,0,0,1-3.21-1.64,11.36,11.36,0,0,1-2.9-3.92,11.14,11.14,0,0,1-1-2.69l0-.05-11.59,3.92-2.94,1-1.39.46a.33.33,0,0,1-.17,0c-.13,0-.17.13-.25.21a15.86,15.86,0,0,0-2,1c-3.16,1.77-5.23,4.38-5.73,6.65-.25,1.26-2.7,10.36-5.38,19.08-.52,1.6-1,3.16-1.53,4.63l.34.17,12.84,6.7h0l.58.29a30.68,30.68,0,0,0,1.77-4.25,23.8,23.8,0,0,0,.72-2.41c.64,3.33,1.3,6.58,1.94,9.65,1.6,7.5,3.12,13.77,3.83,16.63,1,4.43-1.35,12.26-4.25,20.68-3,9-6.69,18.61-7.62,25.69H81.5c-1.85-13.86-14-37.27-11.91-46.37C69.8,164.53,70.1,163.27,70.43,161.8Z" style="fill:#57bbbf"/><path d="M75.3,102.11c3.41-.54,14.41-14.18,18.23-19L92.16,82s-15.43,19.38-19.58,20a28,28,0,0,1-4.66.1A40.38,40.38,0,0,0,75.3,102.11Z" style="opacity:0.2"/><path d="M16.34,135.28c2.68-9,5.13-18.47,5.38-19.78.51-2.36,2.57-5.07,5.74-6.91a16.51,16.51,0,0,1,2-1c.09-.09.13-.17.25-.22a.3.3,0,0,0,.17,0l1.39-.48,2.95-1,9.18-3.22a4.53,4.53,0,0,1-.27-.92l0-.05-11.59,3.92-2.94,1-1.39.46a.33.33,0,0,1-.17,0c-.13,0-.17.13-.25.21a15.86,15.86,0,0,0-2,1c-3.16,1.77-5.23,4.38-5.73,6.65-.25,1.26-2.7,10.36-5.38,19.08-.52,1.6-1,3.16-1.53,4.63l.34.17,2.4,1.25C15.34,138.5,15.83,136.92,16.34,135.28Z" style="opacity:0.2"/><path d="M72.62,281.82c2.08-10.7,9.51-50.23,9.1-66.49a15.26,15.26,0,0,0,0-2.37v-.17c-.06-.36-.11-.71-.18-1.06H78.82c.06.35.11.7.18,1.06V213a16.61,16.61,0,0,1,0,2.37c.41,16.26-7,55.79-9.1,66.49,0,.79,0,1.76,0,2.85l.06,2.24c0,11.58-.36,33.37-1.35,42.48-.42,3.79-1.31,8.84-2.24,14.2-1.77,10.54-3.84,22.49-3.42,29.67,0,.52.12,1.17.18,1.81h2.66c0-.64-.16-1.29-.16-1.81-.42-7.18,1.64-19.13,3.41-29.67,1-5.36,1.83-10.41,2.23-14.2,1-9.11,1.36-30.9,1.36-42.48l0-2.24C72.64,283.58,72.64,282.61,72.62,281.82Z" style="opacity:0.65"/><path d="M73.49,148.4c-1.18,5.28-2.24,10.06-3.07,13.4L29.94,186.06c2.87-8.42,5.3-16.24,4.23-20.67-.7-2.88-2.23-9.16-3.81-16.64,4.7,2.88,17.88,3.29,21.24-.77C54.94,151.4,69.25,152.34,73.49,148.4Z" style="opacity:0.2"/><path d="M48.89,375.07c0,1.19.18,2.6.28,4.13H37.76a37.6,37.6,0,0,0,.77-4.13Z" style="opacity:0.2"/><path d="M64.84,379.2H53.43c.17-1.53.29-2.94.35-4.13H64.09A37.25,37.25,0,0,0,64.84,379.2Z" style="opacity:0.2"/><path d="M393.36,212.83a89.09,89.09,0,0,1-4.26-9.43s-8.33-42.71-8.76-44.06-4.27-45.73-4.73-47.64c-.91-3.81-6.22-8.38-13.57-8.69l3.55,33.1s1.87,26.26,3.1,30.76c.61,2.32,11.54,38,11.54,38-.68,3.21-1.85,9.22-1.12,10.3,1.53,2.12,1.56-1.9,3.85-3.59,5.14,1.81,2.87,17.81,5.36,19.95S396,217.72,393.36,212.83Z" style="fill:#ffd4b2"/><path d="M361.92,327.62c-1.27,11.31-6.39,33.77-5.79,45.14.17,3.68,1.87,9.52,3.08,14.75v.05c.35,1.77.64,3.39.84,4.89a10,10,0,0,1,.12,1.28,7.46,7.46,0,0,1,.06,1.13c0,1.57-2.54,4.21-4,4.76h-8.68c-1.38-.55-3.66-3.31-3.66-4.76,0-1.8.34-5.06.72-8.6.53-4.52,1.14-9.58,1.28-12.52.59-20.25.22-71.11,0-89.42,0-.83,0-1.62,0-2.34v-4.33l17.32.3a32.16,32.16,0,0,1,.06,4c0,.72.06,1.45.06,2.34C363.3,295.47,362.94,318.22,361.92,327.62Z" style="fill:#ffd4b2"/><path d="M360.21,394.85c0,1.58-2.52,4.22-4,4.77h-8.67c-1.38-.55-3.67-3.33-3.67-4.77,0-1.79.35-5.06.72-8.61.12,4.7,3.55,7.05,7.83,7.05,3.91,0,6.14-2.82,6.81-5.78A36.66,36.66,0,0,1,360.21,394.85Z" style="fill:#3f3029"/><path d="M356.18,398.11h-8.67c-1.33-.54-3.46-3.11-3.62-4.59,0,.48-.05,1-.05,1.33,0,1.44,2.29,4.22,3.67,4.77h8.67c1.51-.55,4-3.19,4-4.77,0-.34-.06-.79-.09-1.19C359.85,395.25,357.62,397.6,356.18,398.11Z" style="opacity:0.30000000000000004"/><path d="M342.7,394.86c0,1.45-2.28,4.21-3.66,4.76h-8.66c-1.51-.55-4-3.19-4-4.76a8.93,8.93,0,0,1,.05-1.13,10.19,10.19,0,0,1,.14-1.28c.16-1.5.46-3.12.83-4.89v-.05c1.14-5.23,2.82-11.07,3-14.75.58-11.37-4.52-33.83-5.73-45.14-1-9.4-1.37-32-1.37-43.3V282c.05-2.23.05-3.68.11-4l17.33-.3s0,1.56-.06,4.33v2.34c-.19,18.31-.53,69.17.06,89.42.06,2.94.73,8,1.27,12.52v.23C342.36,389.93,342.7,393.11,342.7,394.86Z" style="fill:#ffd4b2"/><path d="M326.31,394.85c0,1.58,2.54,4.22,4,4.77H339c1.39-.55,3.69-3.33,3.69-4.77,0-1.79-.38-5.06-.73-8.61-.12,4.7-3.56,7.05-7.83,7.05-3.92,0-6.15-2.82-6.8-5.78A38.39,38.39,0,0,0,326.31,394.85Z" style="fill:#3f3029"/><path d="M339,398.11h-8.67c-1.4-.51-3.65-2.86-3.92-4.45,0,.4-.11.85-.11,1.19,0,1.58,2.54,4.22,4,4.77H339c1.39-.55,3.69-3.33,3.69-4.77,0-.38,0-.85-.06-1.33C342.5,395,340.35,397.57,339,398.11Z" style="opacity:0.30000000000000004"/><path d="M373.47,211.13c.49,19.32-9,70.85-9,70.85H321.63s-8.44-51.46-7.89-70.85c0-.86.06-1.68.13-2.41v-.19c.05-.36.11-.72.17-1.08h59.21c0,.36.1.72.16,1.08v.19A15.72,15.72,0,0,1,373.47,211.13Z" style="fill:#153648"/><path d="M373.41,208.72v-.19c-.06-.36-.12-.72-.16-1.08h-2.73c-.62,10.4.5,24.55-1.24,37.27-2.16,16-7.25,30.24-8.43,37.26h3.66s9.45-51.53,9-70.85A15.72,15.72,0,0,0,373.41,208.72Z" style="opacity:0.2"/><rect x="323.28" y="281.98" width="17.38" height="2.33" style="opacity:0.30000000000000004"/><path d="M363.3,284.32H345.9c0-.83,0-1.62,0-2.34h17.38C363.24,282.7,363.3,283.43,363.3,284.32Z" style="opacity:0.30000000000000004"/><path d="M321.28,106.56c-.88-1.76-26.55-38-27.11-39.34s-12.63-47.29-12.63-47.29a91.25,91.25,0,0,1,.2-10.34c.49-5.51-7.08-10-11.07-6.36-2.81-.64-2.37,2.58-2.93,5.13-.26,1.27,3.18,11,5.1,13.69,0,0,6.56,44.79,7.57,47,2,4.21,17.49,25.43,17.49,25.43l18.66,27.51C322,117,323,110.05,321.28,106.56Z" style="fill:#ffd4b2"/><path d="M329.58,100c3.59-.83,6.49-3.11,6.49-5.08V88.11h15.12v6.82c0,2,2.92,4.25,6.48,5.08.82.2-6.58,5.71-14,5.66C336.65,105.63,329.58,100,329.58,100Z" style="fill:#fca"/><path d="M318.8,102.72l.5.6,3.25,3.61,21.13,23.59,21.69-24.25,3.16-3.55a.33.33,0,0,1-.17,0l-1.43-.33-3-.76L357.67,100H329.58L323,101.67l-1.21.3,0,0-1.06.25Z" style="fill:#fca"/><path d="M336.07,88.11v2.24c2.62,2.3,5.3,3.66,7.57,3.66s4.89-1.43,7.55-3.83V88.11Z" style="opacity:0.30000000000000004"/><path d="M325.11,157.51c-.84-3.32-1.89-8.13-3.07-13.39,0-.22-.82-3.26-1.88-7.49,0-.09-2.51-12.86-8.58-21.36-8.21-11.46-21.07-27.16-21.07-27.16l12.88-10.44s15.42,19.39,19.57,20c3.16.48,11.88-.4,11.88-.4v0a14.34,14.34,0,0,0,1.1,2.69,11,11,0,0,0,2.91,3.91,6.7,6.7,0,0,0,2.81,1.56,5.7,5.7,0,0,0,2,.3,5.35,5.35,0,0,0,1.39-.17.41.41,0,0,0,.21,0,6.65,6.65,0,0,0,3.19-1.65,14.55,14.55,0,0,0,4-6.6l0,0L364,101.21l2.94,1,1.39.46a.33.33,0,0,0,.17,0c.13,0,.17.13.25.22a15.82,15.82,0,0,1,2,1c3.17,1.78,5.22,4.38,5.74,6.66.24,1.26,1.8,25.26,2.3,26.73l-.33.17-12.34,6.2c-.8-1.56-.33-2.31-1,.76-1.59,7.5-3.11,13.77-3.82,16.63-1.06,4.42,1.35,12.25,4.25,20.68,3,9,6.69,18.61,7.62,25.68H314c1.85-13.85,14-37.26,11.92-46.36C325.74,160.25,325.45,159,325.11,157.51Z" style="fill:#57bbbf"/><path d="M320.25,97.83c-3.41-.54-14.42-14.18-18.24-19l1.38-1.12s15.42,19.39,19.57,20a28,28,0,0,0,4.66.1A41.31,41.31,0,0,1,320.25,97.83Z" style="opacity:0.2"/><path d="M373.82,111.21c-.51-2.36-2.57-5.06-5.73-6.9-.63-.39-3.84-1.78-3.84-1.78l-2.94-1.06-9.17-3.21a4.53,4.53,0,0,0,.26-.92l0,0L364,101.21l2.94,1s1.73.63,1.81.72a15.82,15.82,0,0,1,2,1c3.17,1.78,5.22,4.38,5.74,6.66.24,1.26,1.8,25.26,2.3,26.73l-.33.17-2.4,1.25C375.61,137.25,374.07,112.52,373.82,111.21Z" style="opacity:0.2"/><path d="M365.31,144.11c-1.18,5.29-2.24,10.06-3.06,13.41l-40.49,24.26c2.88-8.42,5.31-16.25,4.23-20.67-.7-2.88-2.24-9.17-3.81-16.65,4.7,2.89,17.88,3.3,21.25-.76C346.77,147.11,361.07,148.06,365.31,144.11Z" style="opacity:0.2"/><path d="M367.29,62.16c0-16.34-10.57-26.78-23.64-26.78S320,45.82,320,62.16s10.59,12.28,23.65,12.28S367.29,78.53,367.29,62.16Z" style="fill:#fcbb47"/><path d="M320,62.16c.07,2.9.26,19.17,12.82,33-5-17.36,2.65-35,2.65-35Z" style="fill:#fcbb47"/><path d="M367.32,62.16a45.4,45.4,0,0,1-12.81,33c4.95-17.36-2.66-35-2.66-35Z" style="fill:#fcbb47"/><path d="M327.34,64.39c-.57-1.23-.7-2.26-1.55-2.32-1.45-.07.87,12,2.43,13.16C329,73.58,327.34,64.39,327.34,64.39Z" style="fill:#f7bb96"/><path d="M360,64.39c.58-1.23.72-2.26,1.57-2.32,1.44-.07-.88,12-2.42,13.16C358.43,73.58,360,64.39,360,64.39Z" style="fill:#f7bb96"/><path d="M326.52,56c.36-3.4.79-14.25,17.13-14.25h.09C360,41.8,360.45,52.61,360.81,56s-2,21.65-3.85,26.5-9.36,10.22-13.19,10.31l-.12,0c-3.77,0-11.41-5.48-13.31-10.33S326.15,59.44,326.52,56Z" style="fill:#ffd4b2"/><path d="M325.26,60.28V46.63c1.6-1.4,4.78-5.34,6.68-6.32h23.43a13.39,13.39,0,0,1,2.78,2.31c-1.85,5.41-6.41,9.69-12.47,12.73a4,4,0,0,1-1,.49,51.76,51.76,0,0,1-12.77,3.88Z" style="fill:#fcbb47"/><path d="M354,41.17c-10.67-.38-1.26,14.81,7.37,20.18C367.65,54,361.68,41.48,354,41.17Z" style="fill:#fcbb47"/><path d="M112.75,5.22s-1.23,4.56.73,6.51,19-5,18.22-6.51-3.89-5.77-6.48-5.6S115.75,1.06,112.75,5.22Z" style="fill:#f7bb96"/><path d="M282.75,5.22S284,9.78,282,11.73s-19-5-18.22-6.51,3.89-5.77,6.48-5.6S279.76,1.06,282.75,5.22Z" style="fill:#f7bb96"/></svg>