<svg xmlns="http://www.w3.org/2000/svg" xmlns:xlink="http://www.w3.org/1999/xlink" viewBox="0 0 420 360"><defs><linearGradient id="a" x1="299.84" y1="180.79" x2="314.42" y2="180.79" gradientTransform="translate(63.32 -79.16) rotate(16.35)" gradientUnits="userSpaceOnUse"><stop offset="0" stop-color="#f3f3f3"/><stop offset="1" stop-color="#d9e1e4"/></linearGradient><linearGradient id="b" x1="36.58" y1="216.88" x2="174.25" y2="216.88" gradientTransform="matrix(1, 0, 0, 1, 0, 0)" xlink:href="#a"/><clipPath id="c"><circle cx="105.42" cy="216.88" r="80.75" style="fill:none"/></clipPath><linearGradient id="d" x1="75.1" y1="221.5" x2="132.01" y2="221.5" gradientUnits="userSpaceOnUse"><stop offset="0" stop-color="#b550ea"/><stop offset="1" stop-color="#e6737c"/></linearGradient><linearGradient id="e" x1="105.3" y1="295.81" x2="157.62" y2="295.81" gradientUnits="userSpaceOnUse"><stop offset="0" stop-color="#feb422"/><stop offset="1" stop-color="#f95830"/></linearGradient><linearGradient id="f" x1="50.11" y1="295.81" x2="102.43" y2="295.81" xlink:href="#e"/><linearGradient id="g" x1="69.74" y1="298.56" x2="136.23" y2="298.56" gradientUnits="userSpaceOnUse"><stop offset="0" stop-color="#ca88f6"/><stop offset="1" stop-color="#f95830"/></linearGradient><linearGradient id="h" x1="66.54" y1="219.95" x2="140.57" y2="219.95" gradientUnits="userSpaceOnUse"><stop offset="0" stop-color="#ffdf7d"/><stop offset="1" stop-color="#feb422"/></linearGradient><linearGradient id="i" x1="92.32" y1="228.61" x2="113.36" y2="228.61" xlink:href="#h"/><linearGradient id="j" x1="75.1" y1="214.69" x2="132.01" y2="214.69" xlink:href="#h"/><linearGradient id="k" x1="75.1" y1="183.91" x2="132.01" y2="183.91" xlink:href="#d"/><clipPath id="l"><circle cx="277.32" cy="83.5" r="80.75" style="fill:#fff"/></clipPath><linearGradient id="m" x1="208.49" y1="83.5" x2="346.15" y2="83.5" gradientTransform="matrix(1, 0, 0, 1, 0, 0)" xlink:href="#a"/><linearGradient id="n" x1="231.56" y1="160.79" x2="322.33" y2="160.79" gradientUnits="userSpaceOnUse"><stop offset="0" stop-color="#fbd7a6"/><stop offset="1" stop-color="#e6737c"/></linearGradient><linearGradient id="o" x1="248.78" y1="163.73" x2="305.11" y2="163.73" gradientUnits="userSpaceOnUse"><stop offset="0" stop-color="#f2cbe0"/><stop offset="1" stop-color="#ca88f6"/></linearGradient><linearGradient id="p" x1="259.9" y1="134.77" x2="293.99" y2="134.77" xlink:href="#n"/><linearGradient id="q" x1="267.76" y1="113.97" x2="286.12" y2="113.97" xlink:href="#h"/><linearGradient id="r" x1="227.67" y1="55.21" x2="271.1" y2="55.21" gradientUnits="userSpaceOnUse"><stop offset="0" stop-color="#f95830"/><stop offset="1" stop-color="#aa64b9"/></linearGradient><linearGradient id="s" x1="230.27" y1="79.84" x2="258.07" y2="79.84" xlink:href="#r"/><linearGradient id="t" x1="232.88" y1="68.55" x2="260.68" y2="68.55" xlink:href="#h"/><linearGradient id="u" x1="287.6" y1="79.84" x2="315.4" y2="79.84" xlink:href="#r"/><linearGradient id="v" x1="241.19" y1="69.62" x2="303.16" y2="69.62" xlink:href="#h"/><linearGradient id="w" x1="246.44" y1="46.42" x2="322.25" y2="46.42" xlink:href="#r"/><linearGradient id="x" x1="270.42" y1="276.5" x2="408.09" y2="276.5" gradientTransform="matrix(1, 0, 0, 1, 0, 0)" xlink:href="#a"/><clipPath id="y"><circle cx="339.25" cy="276.5" r="80.75" style="fill:none"/></clipPath><linearGradient id="z" x1="289.71" y1="336.43" x2="392.02" y2="336.43" gradientUnits="userSpaceOnUse"><stop offset="0" stop-color="#2642dc"/><stop offset="1" stop-color="#39cbff"/></linearGradient><linearGradient id="aa" x1="325.93" y1="318.86" x2="355.8" y2="318.86" xlink:href="#z"/><linearGradient id="ab" x1="309.15" y1="271.4" x2="371.81" y2="271.4" xlink:href="#h"/><linearGradient id="ac" x1="304.32" y1="281.13" x2="313.08" y2="281.13" xlink:href="#h"/><linearGradient id="ad" x1="303.92" y1="247.56" x2="377.04" y2="247.56" gradientUnits="userSpaceOnUse"><stop offset="0" stop-color="#007acd"/><stop offset="1" stop-color="#39cbff"/></linearGradient><linearGradient id="ae" x1="367.82" y1="280.57" x2="380.71" y2="280.57" xlink:href="#h"/><linearGradient id="af" x1="165.95" y1="146.69" x2="214.81" y2="146.69" gradientTransform="translate(137.15 -87.68) rotate(39.59)" xlink:href="#a"/><linearGradient id="ag" x1="179.69" y1="256.03" x2="259.79" y2="256.03" gradientTransform="translate(410.89 -22) rotate(75.15)" xlink:href="#a"/><linearGradient id="ah" x1="237.97" y1="299.56" x2="290.21" y2="299.56" gradientUnits="userSpaceOnUse"><stop offset="0" stop-color="#ea456b"/><stop offset="1" stop-color="#aa64b9"/></linearGradient><linearGradient id="ai" y1="174.96" x2="52.24" y2="174.96" gradientUnits="userSpaceOnUse"><stop offset="0" stop-color="#31e2cf"/><stop offset="1" stop-color="#009aa2"/></linearGradient><linearGradient id="aj" x1="328.28" y1="109.21" x2="381.56" y2="109.21" xlink:href="#h"/></defs><title>VE-Home-Icon</title><rect x="305.8" y="159.41" width="2.65" height="42.77" transform="translate(-38.48 93.78) rotate(-16.35)" style="fill:url(#a)"/><circle cx="105.42" cy="216.88" r="80.75" style="fill:#fff"/><circle cx="105.42" cy="216.88" r="68.83" style="fill:url(#b)"/><g style="clip-path:url(#c)"><rect x="75.1" y="176.65" width="56.91" height="89.7" rx="23.51" ry="23.51" style="fill:url(#d)"/><path d="M105.3,247.33v32.95a19.39,19.39,0,0,1,19.37,19.38v44.62h33V299.66A52.39,52.39,0,0,0,105.3,247.33Z" style="fill:url(#e)"/><path d="M50.11,299.66v44.62h33V299.66a19.39,19.39,0,0,1,19.37-19.38V247.33A52.39,52.39,0,0,0,50.11,299.66Z" style="fill:url(#f)"/><path d="M136.23,344.28V286.1a33.25,33.25,0,1,0-66.49,0v58.18Z" style="fill:url(#g)"/><path d="M140.57,220A10.07,10.07,0,0,1,130.5,230H76.61A10.07,10.07,0,0,1,66.54,220h0a10.07,10.07,0,0,1,10.07-10.07H130.5A10.07,10.07,0,0,1,140.57,220Z" style="fill:url(#h)"/><path d="M102.84,267.27a10.52,10.52,0,0,1-10.52-10.51v-56.3A10.51,10.51,0,0,1,102.84,190h0a10.51,10.51,0,0,1,10.52,10.51v56.3a10.52,10.52,0,0,1-10.52,10.51Z" style="fill:url(#i)"/><path d="M132,181.59v42.69a23.51,23.51,0,0,1-23.51,23.51H98.6a23.51,23.51,0,0,1-23.5-23.51V181.59Z" style="fill:url(#j)"/><path d="M108.5,158.09H98.6a23.5,23.5,0,0,0-23.5,23.5v28.15c11.74-1.06,22.91-12,28.45-27.69,5.55,15.67,16.72,26.63,28.46,27.69V181.59A23.5,23.5,0,0,0,108.5,158.09Z" style="fill:url(#k)"/><path d="M98.68,216h-4c0-1.11-1.8-2.35-4.2-2.35s-4.2,1.24-4.2,2.35h-4c0-3.55,3.59-6.32,8.17-6.32S98.68,212.49,98.68,216Z" style="fill:#e6737c"/><path d="M122.08,216h-4c0-1.11-1.8-2.35-4.2-2.35s-4.19,1.24-4.19,2.35h-4c0-3.55,3.58-6.32,8.16-6.32S122.08,212.49,122.08,216Z" style="fill:#e6737c"/><path d="M104,237.4H99.65a8.19,8.19,0,0,1-8.17-8.17v-6.32h20.68v6.32A8.19,8.19,0,0,1,104,237.4Zm-8.53-10.52v2.35a4.21,4.21,0,0,0,4.2,4.2H104a4.21,4.21,0,0,0,4.2-4.2v-2.35Z" style="fill:#e6737c"/></g><circle cx="277.32" cy="83.5" r="80.75" style="fill:#fff"/><g style="clip-path:url(#l)"><circle cx="277.32" cy="83.5" r="68.83" style="fill:url(#m)"/><path d="M231.56,197.74V134.25c0-5.75,5.42-10.42,12.1-10.42h66.56c6.69,0,12.11,4.67,12.11,10.42v63.49Z" style="fill:url(#n)"/><path d="M248.78,197.74v-58.9c0-5,3.36-9.12,7.5-9.12H297.6c4.15,0,7.51,4.08,7.51,9.12v58.9Z" style="fill:url(#o)"/><path d="M276.94,145.7a17.07,17.07,0,0,0,17.05-17v-4.82H259.9v4.82A17.06,17.06,0,0,0,276.94,145.7Z" style="fill:url(#p)"/><path d="M286.12,128.65a9.18,9.18,0,0,1-9.18,9.18h0a9.18,9.18,0,0,1-9.18-9.18V99.28a9.18,9.18,0,0,1,9.18-9.18h0a9.18,9.18,0,0,1,9.18,9.18Z" style="fill:url(#q)"/><path d="M271.1,55.21c0,12.47-9.72,22.58-21.72,22.58s-21.71-10.11-21.71-22.58,9.72-22.59,21.71-22.59S271.1,42.73,271.1,55.21Z" style="fill:url(#r)"/><path d="M258.07,79.84a14.18,14.18,0,0,1-13.9,14.45c-7.67,0-13.9-6.47-13.9-14.45s6.23-14.45,13.9-14.45A14.18,14.18,0,0,1,258.07,79.84Z" style="fill:url(#s)"/><path d="M260.68,68.55c0,8-6.23,14.45-13.9,14.45a14.46,14.46,0,0,1,0-28.9C254.45,54.1,260.68,60.57,260.68,68.55Z" style="fill:url(#t)"/><path d="M315.4,79.84a14.18,14.18,0,0,1-13.9,14.45c-7.67,0-13.9-6.47-13.9-14.45s6.23-14.45,13.9-14.45A14.18,14.18,0,0,1,315.4,79.84Z" style="fill:url(#u)"/><path d="M303.16,82a31,31,0,0,1-31,31h0a31,31,0,0,1-31-31V57.22a31,31,0,0,1,31-31h0a31,31,0,0,1,31,31Z" style="fill:url(#v)"/><path d="M300.18,34.54l22.07,22.08-4,4a31.27,31.27,0,0,1-44.22,0L246.44,33A39.15,39.15,0,0,1,300.18,34.54Z" style="fill:url(#w)"/><path d="M268.1,70.64h-4a5.63,5.63,0,1,0-11.25,0h-4a9.6,9.6,0,1,1,19.19,0Z" style="fill:#e6737c"/><rect x="265.45" y="90.57" width="11.73" height="3.97" style="fill:#e6737c"/></g><circle cx="339.25" cy="276.5" r="80.75" style="fill:#fff"/><circle cx="339.25" cy="276.5" r="68.83" style="fill:url(#x)"/><g style="clip-path:url(#y)"><path d="M392,391.54V332.21c0-6.85-7.16-12.41-16-12.41H353.22a7.3,7.3,0,0,0,.06-.94v-27c0-5.82-5.39-10.54-12-10.54h-.75c-6.65,0-12,4.72-12,10.54v27a7.3,7.3,0,0,0,.06.94H305.72c-8.84,0-16,5.56-16,12.41v59.33Z" style="fill:url(#z)"/><path d="M328.57,310.3h24.59a2.64,2.64,0,0,1,2.64,2.64v11.86a2.63,2.63,0,0,1-2.63,2.63H328.57a2.64,2.64,0,0,1-2.64-2.64V312.93A2.64,2.64,0,0,1,328.57,310.3Z" style="fill:url(#aa)"/><path d="M371.81,280a31.33,31.33,0,0,1-31.33,31.33h0A31.33,31.33,0,0,1,309.15,280V262.82a31.33,31.33,0,0,1,31.33-31.33h0a31.33,31.33,0,0,1,31.33,31.33Z" style="fill:url(#ab)"/><path d="M313.08,270.63c-3.33.35-8.76,3.13-8.76,6.55v7.9c0,3.42,5.43,6.21,8.76,6.55Z" style="fill:url(#ac)"/><rect x="324.34" y="269.66" width="5.71" height="3.97" style="fill:#e6737c"/><rect x="348.06" y="269.66" width="5.71" height="3.97" style="fill:#e6737c"/><path d="M340.48,302.69a9.92,9.92,0,0,1-8.47-5.31l3.45-2a5.47,5.47,0,0,0,10.06,0l3.44,2A9.93,9.93,0,0,1,340.48,302.69Z" style="fill:#e6737c"/><path d="M370.46,239.37h-3.65a7.17,7.17,0,0,0,.85-6.22c-1.84-4.74-9.75-6.1-17.66-3a27,27,0,0,0-2.55,1.16,7.54,7.54,0,0,0-.08-4.88c-2.19-5.63-11.58-7.25-21-3.61s-15.08,11-13.12,16.59h-2.77a6.59,6.59,0,0,0-6.59,6.59v27.49c.11.28.22.56.34.84h8.84v-24c0-.33,0-.66,0-1a139.16,139.16,0,0,0,54.66,0c0,.33.05.66.05,1v24h8.84c.12-.28.23-.57.34-.85V246A6.59,6.59,0,0,0,370.46,239.37Z" style="fill:url(#ad)"/><path d="M342.24,288.73H338a4.3,4.3,0,0,1-4.29-4.29V264.73h4v19.71a.32.32,0,0,0,.32.32h4.23a.32.32,0,0,0,.32-.32v-1.16h4v1.16A4.29,4.29,0,0,1,342.24,288.73Z" style="fill:#e6737c"/><rect x="333.34" y="316.45" width="3.97" height="10.1" style="fill:#17abfe"/><path d="M367.82,276.82a6.19,6.19,0,0,1,6.18-6.19h.52a6.19,6.19,0,0,1,6.19,6.19v7.51a6.19,6.19,0,0,1-6.19,6.19H374a6.19,6.19,0,0,1-5.66-3.69Z" style="fill:url(#ae)"/></g><rect x="159.77" y="145.37" width="61.22" height="2.65" transform="translate(-49.82 154.98) rotate(-39.59)" style="fill:url(#af)"/><rect x="218.42" y="214.94" width="2.65" height="82.17" transform="translate(-84.06 402.8) rotate(-75.15)" style="fill:url(#ag)"/><path d="M290.21,299.56a26.12,26.12,0,1,1-26.12-26.12A26.13,26.13,0,0,1,290.21,299.56Z" style="fill:url(#ah)"/><path d="M275.44,290a6.87,6.87,0,0,0-9.73,0l-1.62,1.62L262.47,290a6.88,6.88,0,0,0-9.73,9.72l1.62,1.63h0l9.73,9.72,9.72-9.72h0l1.63-1.63A6.88,6.88,0,0,0,275.44,290Z" style="fill:#fff"/><path d="M52.24,175a26.12,26.12,0,1,1-26.12-26.12A26.13,26.13,0,0,1,52.24,175Z" style="fill:url(#ai)"/><circle cx="16.22" cy="170.56" r="2.2" style="fill:#fff"/><path d="M15.12,181.56h-2.2v-5.5a2.21,2.21,0,0,1,2.2-2.2h3.75l4.73,4.72L22,180.14,18,176.06H15.12Z" style="fill:#fff"/><polygon points="19.52 188.16 17.32 188.16 17.32 181.56 16.22 181.56 16.22 188.16 14.02 188.16 14.02 179.36 19.52 179.36 19.52 188.16" style="fill:#fff"/><rect x="14.02" y="174.96" width="5.5" height="6.6" style="fill:#fff"/><path d="M30.52,173.86h-6.6v-2.22a5.5,5.5,0,1,1,6.6,0Zm-4.4-2.2h2.2v-1.24l.55-.32a3.26,3.26,0,0,0,1.65-2.84,3.3,3.3,0,0,0-6.6,0,3.26,3.26,0,0,0,1.65,2.84l.55.32Z" style="fill:#fff"/><rect x="23.92" y="174.96" width="6.6" height="2.2" style="fill:#fff"/><circle cx="36.02" cy="170.56" r="2.2" style="fill:#fff"/><rect x="33.82" y="174.96" width="4.4" height="13.2" style="fill:#fff"/><path d="M39.32,180.46h-2.2v-4.4h-2.2v4.4h-2.2v-4.4a2.2,2.2,0,0,1,2.2-2.2h2.2a2.21,2.21,0,0,1,2.2,2.2Z" style="fill:#fff"/><path d="M381.56,109.2a26.64,26.64,0,1,1-26.64-26.63A26.65,26.65,0,0,1,381.56,109.2Z" style="fill:url(#aj)"/><path d="M352.39,101.62h5.06a2.53,2.53,0,0,1,2.53,2.53h5a7.6,7.6,0,0,0-7.58-7.59V94h-5.06v2.52a7.59,7.59,0,0,0,0,15.17h5.06a2.53,2.53,0,1,1,0,5.06h-5.06a2.53,2.53,0,0,1-2.53-2.53h-5.05a7.59,7.59,0,0,0,7.58,7.59v2.53h5.06v-2.53a7.59,7.59,0,0,0,0-15.17h-5.06a2.53,2.53,0,1,1,0-5.06Z" style="fill:#fff"/></svg>