<svg xmlns="http://www.w3.org/2000/svg" xmlns:xlink="http://www.w3.org/1999/xlink" viewBox="0 0 420 240"><defs><linearGradient id="a" x1="234.72" y1="-14.92" x2="234.72" y2="108.57" gradientTransform="translate(-99.47)" gradientUnits="userSpaceOnUse"><stop offset="0.13" stop-color="#57bbbf"/><stop offset="0.42" stop-color="#57b9bd"/><stop offset="0.57" stop-color="#56b2b5"/><stop offset="0.69" stop-color="#54a5a7"/><stop offset="0.8" stop-color="#519493"/><stop offset="0.9" stop-color="#4e7d7a"/><stop offset="0.99" stop-color="#4a615c"/><stop offset="1" stop-color="#495c56"/></linearGradient><linearGradient id="b" x1="137.4" y1="73.65" x2="71.23" y2="111.8" gradientUnits="userSpaceOnUse"><stop offset="0" stop-color="#0e4666"/><stop offset="1" stop-color="#1e6da0" stop-opacity="0"/></linearGradient><linearGradient id="c" x1="353.16" y1="26.45" x2="353.16" y2="149.94" xlink:href="#a"/><linearGradient id="d" x1="255.84" y1="115.02" x2="189.68" y2="153.17" xlink:href="#b"/><linearGradient id="e" x1="195.56" y1="67.18" x2="195.56" y2="227.56" xlink:href="#a"/><linearGradient id="f" x1="98.88" y1="182.21" x2="12.95" y2="231.76" xlink:href="#b"/><linearGradient id="g" x1="411.33" y1="99.14" x2="330.61" y2="145.69" xlink:href="#b"/><linearGradient id="h" x1="431.48" y1="49.22" x2="431.48" y2="85.26" gradientTransform="matrix(-1, 0, 0, 1, 843.13, 0)" xlink:href="#a"/><linearGradient id="i" x1="535" y1="25.51" x2="535" y2="130.63" gradientTransform="matrix(-1, 0, 0, 1, 942.59, 0)" xlink:href="#a"/><linearGradient id="j" x1="201.83" y1="53.91" x2="204.81" y2="53.91" gradientTransform="matrix(1, 0, 0, 1, 0, 0)" xlink:href="#a"/><linearGradient id="k" x1="634.3" y1="16.42" x2="634.3" y2="47.62" gradientTransform="translate(-431.84)" xlink:href="#a"/><linearGradient id="l" x1="634.26" y1="29.11" x2="634.26" y2="48.04" gradientTransform="translate(-431.84)" xlink:href="#a"/><linearGradient id="m" x1="203.07" y1="54.15" x2="206.05" y2="54.15" gradientTransform="matrix(1, 0, 0, 1, 0, 0)" xlink:href="#a"/><linearGradient id="n" x1="168.47" y1="53.43" x2="168.47" y2="84.84" xlink:href="#b"/><linearGradient id="o" x1="317.45" y1="153.33" x2="317.45" y2="210.93" gradientUnits="userSpaceOnUse"><stop offset="0" stop-color="#0e4666"/><stop offset="1" stop-color="#0e4666" stop-opacity="0"/></linearGradient><linearGradient id="p" x1="460.97" y1="154.83" x2="465.3" y2="154.83" gradientTransform="matrix(-1, 0, 0, 1, 837.89, 0)" xlink:href="#a"/><linearGradient id="q" x1="893.72" y1="100.38" x2="893.72" y2="145.69" gradientTransform="matrix(-1, 0, 0, 1, 1269.72, 0)" xlink:href="#a"/><linearGradient id="r" x1="893.66" y1="118.81" x2="893.66" y2="146.31" gradientTransform="matrix(-1, 0, 0, 1, 1269.72, 0)" xlink:href="#a"/><linearGradient id="s" x1="462.76" y1="155.17" x2="467.09" y2="155.17" gradientTransform="matrix(-1, 0, 0, 1, 837.89, 0)" xlink:href="#a"/><linearGradient id="t" x1="274.15" y1="35.3" x2="276.22" y2="35.3" gradientTransform="matrix(1, 0, 0, 1, 0, 0)" xlink:href="#a"/><linearGradient id="u" x1="706.43" y1="9.28" x2="706.43" y2="30.94" gradientTransform="translate(-431.84)" xlink:href="#a"/><linearGradient id="v" x1="706.4" y1="18.09" x2="706.4" y2="31.23" gradientTransform="translate(-431.84)" xlink:href="#a"/><linearGradient id="w" x1="275.01" y1="35.47" x2="277.08" y2="35.47" gradientTransform="matrix(1, 0, 0, 1, 0, 0)" xlink:href="#a"/><linearGradient id="x" x1="251" y1="34.97" x2="251" y2="56.77" gradientUnits="userSpaceOnUse"><stop offset="0" stop-color="#0e4666"/><stop offset="0.99" stop-color="#1e6da0" stop-opacity="0"/></linearGradient></defs><title>VE-Hero-Network</title><g style="isolation:isolate"><path d="M414.78,101.83c-5.43-3.2-13-5.28-17.15-4.77-1.59.19-2.51.75-2.75,1.54L341.59,84.42c.33-.92-.24-2.1-1.77-3.28a19.33,19.33,0,0,0-10.73-3.35L290.61,53.08c2.12-.37,2.89-1.33,1.73-2.31s-3.75-1.62-6.23-1.66l-9.85-11.86h.33c2.29-.12,3.42-.8,2.54-1.49s-3.33-1.13-5.52-1-3.4.75-2.64,1.44a7.29,7.29,0,0,0,3.65,1l9.64,12c-2.21.31-3.2,1.24-2.17,2.23a5.15,5.15,0,0,0,1.73,1L234.67,81.94c-1.46-1.49-4.52-2.35-7.79-2.06a13.72,13.72,0,0,0-1.62.24l-17.32-24.3a2.28,2.28,0,0,0,1-1l30.65-3.64c.92.9,3.43,1.47,6.05,1.3,3-.2,4.86-1.28,4.21-2.38s-3.41-1.78-6.24-1.6c-2.55.15-4.38,1-4.38,1.94L208.88,54c-.55-1-2.8-1.53-5.5-1.36a14.82,14.82,0,0,0-1.95.25l-31.06-8.81a2.77,2.77,0,0,0,1.26-.89c.52-.87-1.29-1.45-4-1.31s-5.5,1-6.16,1.85,1.12,1.54,4,1.39a18.14,18.14,0,0,0,3.38-.52l30.68,8.84c-1.23.47-2.05,1.1-2.15,1.76a1.15,1.15,0,0,0,.64,1.11L143.37,72.82a11.44,11.44,0,0,0-3.62-.22c-4.21.32-9,2.18-10.64,4.21s.51,3.61,5.08,3.24,9.37-2.42,10.75-4.49a1.42,1.42,0,0,0-.07-2l54.51-16.69a11.79,11.79,0,0,0,3.66.27,14,14,0,0,0,3.1-.55l16.6,24.35c-2,.93-3.25,2.35-3.09,3.85s1.85,2.88,4.25,3.49l-110.63,83.2c-1.76-1-4.25-1.41-7.32-.95C97,171.9,85.34,180,79.6,189.28c-6.3,10.2-3,17.69,7.7,15.79,10.55-1.88,23-11.91,27.41-21.54,1.69-3.66,2-6.75,1.12-9L227.07,88.66c.45,0,.92,0,1.39-.06l.84-.11,17.89,22.64c-2.51,1.58-3.84,4.08-3.15,6.78,1.12,4.35,7,7.46,12.92,6.68s9.14-5,7.42-9.2c-1.62-4-7.15-6.49-12.45-5.87a14.69,14.69,0,0,0-1.68.31L232.08,87.72c.3-.12.58-.25.84-.38l93.76-4.09a18.28,18.28,0,0,0,5.72,2.42l34.72,59.25a14.72,14.72,0,0,0-4.19,0c-6.13,1-6.74,7-.88,13.86,6.34,7.39,17.59,12.74,24.51,11.39s6.06-8.57-1.07-15.61a37.65,37.65,0,0,0-12.84-8.17h0l-37-60.16a13.85,13.85,0,0,0,2.42,0,6.54,6.54,0,0,0,2.32-.61l54.76,14.77a11.67,11.67,0,0,0,3.82,3.53c5.38,3.5,13.71,6,18.25,5.36S420.51,105.22,414.78,101.83ZM163.33,43.63c.4-.56,2.15-1.09,3.91-1.18s2.89.28,2.54.84-2.1,1.11-3.91,1.21S162.92,44.2,163.33,43.63ZM142.08,75.79c-.92,1.3-4,2.58-6.81,2.81s-4.29-.69-3.23-2,4.05-2.49,6.76-2.7S143,74.51,142.08,75.79ZM244,49.18c1.81-.11,3.58.35,4,1s-.81,1.38-2.69,1.5-3.68-.37-4-1.08S242.13,49.29,244,49.18Zm-44.44,5.88c.1-.78,1.81-1.51,3.81-1.64s3.59.39,3.57,1.16-1.71,1.56-3.78,1.69S199.41,55.86,199.51,55.06Zm53.26,57c3.43-.42,7,1.26,7.94,3.8s-1.09,5.26-4.76,5.73-7.36-1.42-8.13-4.13S249.32,112.45,252.77,112ZM381.71,165c-4.27.81-11.24-2.42-15.29-7-3.86-4.35-3.61-8.28.36-9s10.34,2.07,14.5,6.29C385.65,159.74,386,164.16,381.71,165ZM274.13,35.17a6.53,6.53,0,0,1,3.52.65c.54.44-.18.87-1.62.94a6.25,6.25,0,0,1-3.56-.67C272,35.65,272.73,35.24,274.13,35.17Zm11.71,14.68a7.55,7.55,0,0,1,4.64,1c.83.71,0,1.4-1.79,1.52s-3.95-.37-4.71-1.09S284.08,50,285.84,49.85Zm2.85,3.38,37.93,24.83c-2.25.58-2.94,2-1.68,3.64l-89.89,3.85a2.78,2.78,0,0,0,.52-1.83l50.11-30.78A15.6,15.6,0,0,0,288.69,53.23ZM108.43,184.55c-3,6.07-10.75,12.18-17.23,13.29s-8.74-3.35-5-9.63C89.66,182.28,97.15,177,103,176S111.24,178.83,108.43,184.55ZM228.15,86.89c-2.85.27-5.36-.81-5.57-2.37s1.86-2.91,4.57-3.15,5.14.74,5.49,2.22S231,86.62,228.15,86.89Zm108-2.34a11.84,11.84,0,0,1-7.79-2.27c-1.7-1.45-1.08-2.79,1.33-3a12.12,12.12,0,0,1,7.59,2.14C339.14,82.86,338.66,84.29,336.15,84.55Zm77.24,22.27c-2.83.38-8-1.15-11.43-3.33s-3.71-4-1-4.38,7.55,1,11,3.09S416.21,106.44,413.39,106.82Z" style="fill:#fff;opacity:0.6"/><path d="M136.71,17.33A6.85,6.85,0,0,0,137,19c.31.92.84,1.74.79,1.92s-.6.39-.6.39a9.59,9.59,0,0,1,.56,2.18c-.12.24-1.73,0-1.73,0L135.39,25,133,25.3l-.23-1.39L134,18.83Z" style="fill:#fdb171"/><path d="M139.82,75.9a22.09,22.09,0,0,0-2.85.16c.49-.2.79-.35.64-.39a9.46,9.46,0,0,0-1.58,0l.15-26.8,1.18-.16a45.79,45.79,0,0,0,0-11.9c-.86-6.35-.54-11.43-2.13-11.43h-2.54c-2.7,5.56-2.22,14.44-1.43,17.3s-.62,6.35-.62,6.35h2.05v28.1h0v0l1.07,0H134v0l1-.33v.64l1.08,0S140.3,76,139.82,75.9ZM134.6,57.43l.32,18.38-.92.09Z" style="fill:url(#a)"/><path d="M131,18.28c-.2,1.9,1.79,5.63,1.79,5.63h2.32L134.8,22s-.78-.78-.59-1.25.18-.63.57-.52.83.94.83.94l.44-.29a7.08,7.08,0,0,1-.32-1.9c.12-.32,1-1.63,1-1.63s-1.72-1.27-3.11-.78A7.68,7.68,0,0,0,131,18.28Z" style="fill:#0e4666"/><polygon points="132.69 25.43 132.69 24.63 135.39 24.95 135.92 25.89 135.17 25.43 132.69 25.43" style="fill:#fff"/><polygon points="136.02 77.42 70.61 114.57 61.26 114.57 132.69 77.18 133.81 77.19 102.73 94.72 134.94 77.45 136.02 77.42" style="opacity:0.46;mix-blend-mode:multiply;fill:url(#b)"/><path d="M255.15,58.7a6.85,6.85,0,0,0,.28,1.66c.31.92.84,1.74.79,1.92s-.6.39-.6.39a9.59,9.59,0,0,1,.56,2.18c-.12.24-1.73,0-1.73,0l-.62,1.44-2.35.35-.23-1.39,1.17-5.08Z" style="fill:#fdb171"/><path d="M258.27,117.27a22.14,22.14,0,0,0-2.86.16c.49-.2.79-.35.64-.39a9.47,9.47,0,0,0-1.58,0l.16-26.8,1.18-.16a46.32,46.32,0,0,0,0-11.9c-.87-6.35-.55-11.43-2.14-11.43h-2.54c-2.7,5.56-2.22,14.44-1.43,17.3s-.62,6.35-.62,6.35h2v28.1h0v0l1.08,0h.15v0l1-.33,0,.64,1.07,0S258.74,117.39,258.27,117.27ZM253,98.8l.32,18.38-.92.09Z" style="fill:url(#c)"/><path d="M249.48,59.71c-.19,2,1.82,5.89,1.82,5.89l2.33,0-.34-2s-.79-.82-.61-1.3.17-.66.57-.55.84,1,.84,1l.43-.29a7.71,7.71,0,0,1-.33-2c.12-.34,1-1.71,1-1.71s-1.73-1.33-3.12-.83A7.67,7.67,0,0,0,249.48,59.71Z" style="fill:#0e4666"/><polygon points="251.13 66.8 251.13 66 253.83 66.32 254.36 67.27 253.61 66.8 251.13 66.8" style="fill:#fff"/><polygon points="254.46 118.79 189.05 155.94 179.7 155.94 251.13 118.55 252.25 118.56 221.17 136.09 253.38 118.82 254.46 118.79" style="opacity:0.46;mix-blend-mode:multiply;fill:url(#d)"/><path d="M103.21,113.94a8.88,8.88,0,0,0-1,2c-.4,1.2-.47,2.47-.66,2.61-.35.26-.94,0-.94,0a12.21,12.21,0,0,1-1.09,2.7c-.31.16-1.83-1.3-1.83-1.3l-1.09.61-3.4-1L94,117.8l5.16-4.41Z" style="fill:#dfcbc3"/><path d="M102,185.14a28.41,28.41,0,0,0-3.71.2c.63-.26,1-.46.83-.51a12.5,12.5,0,0,0-2.05.07l.2-34.8,1.53-.21a59.5,59.5,0,0,0,0-15.46c-1.12-8.24-.7-14.84-2.77-14.84H92.77c-3.51,7.21-2.89,18.76-1.86,22.47s-.81,8.24-.81,8.24h2.67v36.49h0v.05l1.4,0,.05,0h.15v0l1.26-.43v.84l1.4,0S102.65,185.3,102,185.14Zm-6.79-24L95.65,185l-1.18.11Z" style="fill:url(#e)"/><path d="M96.54,110.54c-1.68,1.82-2.5,7.26-2.5,7.26l2.43,1.79,1.16-2.27s-.21-1.42.33-1.76.68-.53,1-.11.14,1.63.14,1.63l.68,0a9.28,9.28,0,0,1,1.13-2.22,23.59,23.59,0,0,1,2.29-1s-.81-2.66-2.65-3.22A10.07,10.07,0,0,0,96.54,110.54Z" style="fill:#0e4666"/><polygon points="92.77 119.59 92.77 118.55 96.27 118.97 96.95 120.19 95.98 119.59 92.77 119.59" style="fill:#fff"/><polygon points="97.09 187.11 12.13 235.36 0 235.36 92.77 186.79 94.21 186.81 53.85 209.57 95.69 187.15 97.09 187.11" style="opacity:0.46;mix-blend-mode:multiply;fill:url(#f)"/><polygon points="409.74 103.91 328.02 148.91 318.35 148.91 405.56 104.14 403.69 102.83 409.74 103.91" style="opacity:0.46;mix-blend-mode:multiply;fill:url(#g)"/><path d="M404.3,54.06a5.57,5.57,0,0,1,.19,1.42c0,.83-.24,1.63-.15,1.76s.59.17.59.17a8.5,8.5,0,0,0,.08,1.91c.16.17,1.42-.41,1.42-.41l.54.61,2.33.1-.16-1.19-2.24-3.84Z" style="fill:#dfcbc3"/><polygon points="409.77 61 414.9 70.07 410.26 76.18 409.77 73.97 412.79 69.54 408.39 62.58 409.77 61" style="fill:url(#h)"/><path d="M406.93,104.12l.92,0v-.55l.82.28v0h.13l.91,0v0h0V80h1.74a9.91,9.91,0,0,1-.53-5.4c.68-2.43,1.08-10-1.21-14.73H407.6c-1.35,0-1.08,4.32-1.81,9.73a39,39,0,0,0,0,10.13l1,.14.14,22.81a9.19,9.19,0,0,0-1.35,0c-.12,0,.13.17.54.34a15.94,15.94,0,0,0-2.43-.13C403.29,102.93,406.93,104.12,406.93,104.12Zm1.72-1.3-.78-.08.27-15.64Z" style="fill:url(#i)"/><path d="M409.17,53.4c.64,1.49,0,5,0,5l-1.89.59L407,57.36s.44-.83.18-1.16-.31-.47-.6-.28-.44,1-.44,1l-.43-.12a6.1,6.1,0,0,0-.22-1.63,14.78,14.78,0,0,0-1.21-1.08s1.08-1.47,2.34-1.42A6.58,6.58,0,0,1,409.17,53.4Z" style="fill:#0e4666"/><polygon points="409.77 59.86 409.77 59.17 407.47 59.45 407.02 60.26 407.66 59.86 409.77 59.86" style="fill:#fff"/><path d="M203.49,11.74a4,4,0,0,0,.75,1.07,3.46,3.46,0,0,0,.9.4,1.46,1.46,0,0,0-.37.89c0,.48.11.76,0,1s-.53.34-1.35.22l-1-.12a1.85,1.85,0,0,0-.21.53,7.84,7.84,0,0,0,.07.81s-.23,0-.64.46a8.8,8.8,0,0,0-.68.94l-.17.26-.86,1.08a3.15,3.15,0,0,1-2.32,1.55,4.29,4.29,0,0,1-2.21-1.05s3.23-.62,3.1-2.31c-.07-.85-1.16-2.72-1.15-4.29a3.51,3.51,0,0,1,2-3.14c1.65-.56,2.36-.05,2.54.11a1.05,1.05,0,0,1,.25.54s1,0,1.23.41A.83.83,0,0,1,203.49,11.74Z" style="fill:#dfcbc3"/><polygon points="201.62 35.67 202.13 52.65 202.57 53.81 203.63 54.1 202.98 53.05 203.04 35.81 201.62 35.67" style="fill:#dfcbc3"/><path d="M202.13,52.65a1.44,1.44,0,0,0-.28.55c-.09.33.17.44.18.63s0,1.19,0,1.19h.05l.11-1.09a2.68,2.68,0,0,1,.52.32c.36.27.41.82.8.86s1.27.06,1.27.06a5.64,5.64,0,0,1-.93-.75,4.05,4.05,0,0,1-.24-.37,2.16,2.16,0,0,1-1.51-1.4Z" style="fill:url(#j)"/><polygon points="202.86 35.91 203.36 52.88 203.81 54.05 204.87 54.33 204.22 53.29 204.27 36.05 202.86 35.91" style="fill:#dfcbc3"/><path d="M199.72,16.75a41.1,41.1,0,0,0,1,8.64c.36,1.39-.77,4.51-.77,4.51h5.29a4.83,4.83,0,0,1-1.14-3c-.1-.83.29-3.59.05-5.12-.09-.57.87-.15.49-1.9a14,14,0,0,0-1.71-3.09Z" style="fill:url(#k)"/><polygon points="199.72 16.75 200.01 16.11 202.97 16.53 204.19 18.88 202.52 17.05 199.72 16.75" style="fill:#fff"/><path d="M200.54,29.31a6.61,6.61,0,0,0-.63,2.31c.18,1.78,1,2.63,1,3.15s.38,2.38.38,2.38l3.31.14s.43-5.75.26-6.64-.28-1.33-.28-1.33Z" style="fill:url(#l)"/><path d="M203.36,52.88a1.54,1.54,0,0,0-.28.55c-.09.33.17.44.18.64s0,1.18,0,1.18h.06l.1-1.1a2.38,2.38,0,0,1,.53.33c.36.26.41.81.79.86s1.28.06,1.28.06a5.77,5.77,0,0,1-.93-.75c-.18-.25-.25-.37-.25-.37a2.2,2.2,0,0,1-1.51-1.41Z" style="fill:url(#m)"/><path d="M203.32,11.05c-.26-.43-1.23-.41-1.23-.41a1.05,1.05,0,0,0-.25-.54c-.18-.16-.89-.67-2.54-.11a3.51,3.51,0,0,0-2,3.14c0,1.57,1.08,3.44,1.15,4.29.13,1.69-3.1,2.31-3.1,2.31a4.29,4.29,0,0,0,2.21,1.05,3.15,3.15,0,0,0,2.32-1.55l.32-.41,1.22-1.89a12.81,12.81,0,0,1-.53-2.8c0-1.09,1-1.25,1.78-1.32s.79-1.07.79-1.07A.83.83,0,0,0,203.32,11.05Z" style="fill:#0e4666"/><polygon points="202.06 55.02 130.97 88.07 140.32 91.16 205.97 55.38 204.73 55.33 161.7 76.07 200.94 56.29 204.41 55.14 203.32 55 200.78 55.91 202.06 55.02" style="opacity:0.46;mix-blend-mode:multiply;fill:url(#n)"/><polygon points="376.59 156.44 271.68 222.5 258.3 222.5 372.2 157.94 370.79 157 374.75 156.22 374.8 156.78 374.58 157.58 376.51 156.44 376.59 156.44" style="opacity:0.46;mix-blend-mode:multiply;fill:url(#o)"/><path d="M374.51,93.58a5.83,5.83,0,0,1-1.09,1.56,5.12,5.12,0,0,1-1.32.58,2.15,2.15,0,0,1,.55,1.3c0,.69-.17,1.09.06,1.37s.77.49,2,.32,1.43-.18,1.43-.18a2.57,2.57,0,0,1,.3.78,10.74,10.74,0,0,1-.09,1.17s.33,0,.92.67a10.89,10.89,0,0,1,1,1.37l.26.37,1.25,1.57c.88,1.13,1.88,2.25,3.36,2.26s3.21-1.54,3.21-1.54-4.69-.89-4.5-3.35c.1-1.22,1.69-3.94,1.67-6.23A5.11,5.11,0,0,0,380.6,91c-2.41-.81-3.43-.07-3.7.16a1.61,1.61,0,0,0-.36.79s-1.41,0-1.79.59A1.19,1.19,0,0,0,374.51,93.58Z" style="fill:#7a5136"/><polygon points="377.22 128.34 376.49 152.99 375.84 154.69 374.3 155.09 375.25 153.58 375.17 128.54 377.22 128.34" style="fill:#7a5136"/><path d="M376.49,153a2.17,2.17,0,0,1,.4.8c.13.48-.24.64-.26.92s0,1.72,0,1.72h-.08l-.15-1.59a4,4,0,0,0-.77.47c-.52.39-.59,1.19-1.16,1.25s-1.84.09-1.84.09a8.92,8.92,0,0,0,1.35-1.09c.25-.36.35-.54.35-.54a2.94,2.94,0,0,0,1.28-.68A3.14,3.14,0,0,0,376.49,153Z" style="fill:url(#p)"/><polygon points="375.42 128.68 374.69 153.33 374.05 155.03 372.51 155.44 373.45 153.92 373.37 128.88 375.42 128.68" style="fill:#7a5136"/><path d="M380,100.86a59.13,59.13,0,0,1-1.39,12.55c-.53,2,1.11,6.55,1.11,6.55H372s1.27-1.11,1.66-4.3c.14-1.21-.43-5.22-.08-7.43.13-.84-1.26-.22-.71-2.77.3-1.41,2.49-4.49,2.49-4.49Z" style="fill:url(#q)"/><polygon points="379.98 100.86 379.56 99.93 375.26 100.54 373.5 103.95 375.91 101.29 379.98 100.86" style="fill:#fff"/><path d="M378.79,119.1a9.78,9.78,0,0,1,.92,3.35c-.27,2.58-1.46,3.82-1.52,4.57s-.54,3.47-.54,3.47l-4.81.2s-.62-8.36-.38-9.65.4-1.93.4-1.93Z" style="fill:url(#r)"/><path d="M374.69,153.33a2.28,2.28,0,0,1,.4.8c.14.48-.24.64-.25.93s0,1.72,0,1.72h-.09l-.15-1.59a3.82,3.82,0,0,0-.76.47c-.52.39-.6,1.19-1.16,1.25s-1.85.09-1.85.09a8.88,8.88,0,0,0,1.36-1.09c.25-.36.35-.54.35-.54a2.94,2.94,0,0,0,1.28-.68A3.06,3.06,0,0,0,374.69,153.33Z" style="fill:url(#s)"/><path d="M374.75,92.58c.38-.62,1.79-.59,1.79-.59a1.61,1.61,0,0,1,.36-.79c.27-.23,1.29-1,3.7-.16a5.1,5.1,0,0,1,2.85,4.56c0,2.29-1.57,5-1.67,6.23-.19,2.46,4.5,3.35,4.5,3.35s-1.73,1.54-3.21,1.54-2.48-1.13-3.36-2.26l-.47-.59-1.77-2.74a19.12,19.12,0,0,0,.77-4.07c0-1.59-1.39-1.81-2.59-1.93s-1.14-1.55-1.14-1.55A1.19,1.19,0,0,1,374.75,92.58Z" style="fill:#0e4666"/><path d="M275.3,6a2.6,2.6,0,0,0,.53.75,2.75,2.75,0,0,0,.62.28,1,1,0,0,0-.26.62c0,.33.08.52,0,.65s-.36.24-.93.16l-.68-.09a1.22,1.22,0,0,0-.14.37,3.4,3.4,0,0,0,0,.56s-.16,0-.44.32a5.36,5.36,0,0,0-.47.65l-.12.18-.6.75a2.17,2.17,0,0,1-1.61,1.08,3,3,0,0,1-1.53-.73s2.24-.43,2.15-1.6c-.05-.59-.81-1.89-.8-3a2.44,2.44,0,0,1,1.36-2.18c1.15-.39,1.64,0,1.77.08a.72.72,0,0,1,.17.37s.67,0,.86.28A.59.59,0,0,1,275.3,6Z" style="fill:#fdb171"/><polygon points="274.01 22.64 274.36 34.43 274.67 35.24 275.4 35.43 274.95 34.71 274.99 22.74 274.01 22.64" style="fill:#fdb171"/><path d="M274.36,34.43a1,1,0,0,0-.19.38c-.07.23.11.3.12.44s0,.82,0,.82h0l.07-.76a1.65,1.65,0,0,1,.37.22c.25.19.28.57.55.6s.88,0,.88,0a3.91,3.91,0,0,1-.64-.52,1.5,1.5,0,0,1-.17-.26,1.49,1.49,0,0,1-.62-.32A1.55,1.55,0,0,1,274.36,34.43Z" style="fill:url(#t)"/><polygon points="274.87 22.81 275.21 34.59 275.52 35.4 276.26 35.6 275.81 34.87 275.85 22.91 274.87 22.81" style="fill:#fdb171"/><path d="M272.69,9.51a28.79,28.79,0,0,0,.66,6,8,8,0,0,1-.53,3.13h3.67a3.35,3.35,0,0,1-.79-2.05c-.07-.58.2-2.5,0-3.56-.07-.39.6-.1.34-1.32a9.9,9.9,0,0,0-1.19-2.14Z" style="fill:url(#u)"/><polygon points="272.69 9.51 272.89 9.07 274.94 9.36 275.79 10.99 274.63 9.72 272.69 9.51" style="fill:#fff"/><path d="M273.26,18.23a4.5,4.5,0,0,0-.44,1.6,9.6,9.6,0,0,0,.72,2.19c0,.36.26,1.65.26,1.65l2.3.1s.3-4,.18-4.61-.19-.92-.19-.92Z" style="fill:url(#v)"/><path d="M275.21,34.59A1.24,1.24,0,0,0,275,35c-.06.23.12.31.13.44s0,.83,0,.83h0l.08-.76a1.67,1.67,0,0,1,.36.23c.25.18.29.56.56.59s.88,0,.88,0a3.88,3.88,0,0,1-.65-.52l-.17-.25a1.45,1.45,0,0,1-.61-.33A1.52,1.52,0,0,1,275.21,34.59Z" style="fill:url(#w)"/><path d="M275.19,5.55c-.19-.29-.86-.28-.86-.28a.72.72,0,0,0-.17-.37c-.13-.12-.62-.47-1.77-.08A2.44,2.44,0,0,0,271,7c0,1.09.75,2.39.8,3,.09,1.17-2.15,1.6-2.15,1.6a3,3,0,0,0,1.53.73,2.17,2.17,0,0,0,1.61-1.08L273,11l.85-1.31a9,9,0,0,1-.37-1.94c0-.76.66-.87,1.24-.92s.54-.75.54-.75A.59.59,0,0,0,275.19,5.55Z" style="fill:#0e4666"/><polygon points="274.31 36.07 224.97 59.01 231.46 61.16 277.02 36.32 276.17 36.29 246.3 50.69 273.53 36.96 275.94 36.16 275.19 36.06 273.43 36.69 274.31 36.07" style="opacity:0.46;mix-blend-mode:multiply;fill:url(#x)"/></g></svg>