<svg xmlns="http://www.w3.org/2000/svg" viewBox="0 0 400 400"><title>VE-Rewards-img</title><path d="M85.3,151.73c1.4-2.54,2.54-7.26,3.37-11.85.31-1.61.55-3.18.79-4.66.68-4.28,1-7.63,1-7.63s22.12,10.46,17.25,17c-.32.46-.6.93-.9,1.45a14.48,14.48,0,0,0-1.42,4.48,30.51,30.51,0,0,0,.81,11.93S89.58,156.39,85.3,151.73Z" style="fill:#fca"/><path d="M114.66,99.21c3,2.52,3.75,7,4.4,10.41s1.59,5.72,1.1,6.69a22.21,22.21,0,0,1-1.15,2.3c-.44.63,3.65,11.59,3.11,12.41s-3.16.79-3.7.9c-1.2.23-1.25,1.53-1.29,2.35s1.44,2.23,1.08,2.69c-.88,1.12-2.82.58-2.82.58s2.63.69,1.78,1.85c-.38.51-1.22.39-1.84.93s.86,4.3,0,5.27c-3.25,3.49-12.23-.57-18.7-3.93a60.28,60.28,0,0,0-9.52-8.18c-2.16-1.69-10-18.77-6.48-25.88s9.69-12.8,16.33-13.08S110.43,95.66,114.66,99.21Z" style="fill:#ffd4b2"/><path d="M106.85,146.07a14.48,14.48,0,0,0-1.42,4.48c-3.22-1.05-16.21-13.85-16-15.33,1.83,1.36,3.94,4,7.12,6.45C99.41,143.82,103.49,145.09,106.85,146.07Z" style="opacity:0.2"/><path d="M125.18,100.54c-2.21.58-4.14,1.06-6.39-.45s-7.55-6.93-15.81-8.5c-8.42-1.58-16.15-.25-22,6.6a22.46,22.46,0,0,0-4.48,16.11c1,6.52,4.22,12.08,6.27,15.82,2.8,5.06,6.2,9.19,5.77,10.31,3.21-3.34,3.72-12.52,4.16-14.58-1.21-1.19-4.79-8.66-1-10.72s7.43,2.66,8.92,8.1c1.89-5.43,2.46-11.61,5.54-15.43,2.41-1.91,10.66-.72,13.16-1.65C123.2,104.72,125,102,125.18,100.54Z" style="fill:#693913"/><path d="M123.12,249.77l-37.51,4s-6.18-62.29-8.22-81.62c-.93-8.89,8.72-21.76,9.28-23.76,6.44,8.92,16.65,13,18.79,10.31,1.39,1,11.39,8.93,14.29,14.09s2.6,21.59,2.22,29.06S121.47,245.26,123.12,249.77Z" style="fill:#0d5434"/><path d="M77.39,172.11c2,19.33,8.22,81.62,8.22,81.62l4.11-.44C87.52,231.58,77,168.29,77.39,172.11Z" style="opacity:0.2"/><path d="M202.9,356.33c-.66-2.26-1.24-4.75-1.66-6.88a34,34,0,0,1-.65-4.67c0-1,.16-1.68.56-2s6.59,2.47,10.51-.22c.89-.61,7.51-8.26,8.21-8a48.56,48.56,0,0,0,13.39,1.57,22.67,22.67,0,0,0,8.48-1.71,31.53,31.53,0,0,0,3.29-1.65c1.31-.74,3.34-1.38,4.9-.65a3.91,3.91,0,0,1,2.21,3.39,4,4,0,0,1,0,.68c-.29,2-1.48,6.07-6.33,10.54a18.06,18.06,0,0,1-3.91,2.47l-7.68,3.45a14.12,14.12,0,0,1-4.46,1.11,25.24,25.24,0,0,0-2.91.15,1.54,1.54,0,0,0-1.35,1,15,15,0,0,1-.65,1.91l-.27.17-9.61,4.33c-3.93,1.16-7.69,1.69-9.35,1a11.41,11.41,0,0,1-1.94-3.77C203.38,357.88,203.14,357.12,202.9,356.33Z" style="fill:#153648"/><path d="M250.86,332.79a3.43,3.43,0,0,1,.3,1.35,4.11,4.11,0,0,1,0,.69c-.28,2-1.47,6.06-6.32,10.53a17.68,17.68,0,0,1-3.91,2.47l-7.69,3.46a13.72,13.72,0,0,1-4.45,1.1,27.43,27.43,0,0,0-2.91.15,1.55,1.55,0,0,0-1.35,1,13.1,13.1,0,0,1-.66,1.9l-.26.17L214,360c-3.9,1.15-7.61,1.68-9.3,1a6.12,6.12,0,0,0,.92,1.37c1.66.67,5.42.14,9.35-1l9.61-4.33.27-.17a15,15,0,0,0,.65-1.91,1.54,1.54,0,0,1,1.35-1,25.24,25.24,0,0,1,2.91-.15,14.12,14.12,0,0,0,4.46-1.11l7.68-3.45a18.06,18.06,0,0,0,3.91-2.47c4.85-4.47,6-8.54,6.33-10.54a4,4,0,0,0,0-.68A3.75,3.75,0,0,0,250.86,332.79Z" style="opacity:0.30000000000000004"/><path d="M226.37,336.5s-25.78-73.4-28.19-75.81c-3.85-3.82-60.64-1.55-65.24-3.88a65.33,65.33,0,0,1-9.82-6.2L87,250.11a42.14,42.14,0,0,0,9.34,39.45h86.52c8.68,26.57,17.48,58.81,17.48,58.81Z" style="fill:#6d5539"/><path d="M204.66,347.23s-13.16-34.47-21.84-61c0,0-60.64,3.76-86.52,0-2.8-.41-10.16-11.63-10.79-26.34A42.27,42.27,0,0,0,96.3,289.56h86.52c8.68,26.57,17.48,58.81,17.48,58.81Z" style="opacity:0.2"/><path d="M112.34,217.32s-21.24,3.5-20.81,5.33.6,13.21,10.64,17.18,43.53,2.54,49.79,2.44c16.1-.3,23.75,8.8,25.2,8.07,3.3-1.66-1.72-11.55-9.23-14.62-5-2.05-10.08-2-14.48-2.53-4.25-.49-34.7-4.57-38.78-9.67C112.79,221.18,112.34,217.32,112.34,217.32Z" style="fill:#fca"/><path d="M95.72,164.13c-8.84,1.35-13.66,8.37-12,19.13S91,220.7,92,224.49c2.76,0,21.92-3.33,21.92-3.33s-3.72-42.32-6-46.71S102.26,163.13,95.72,164.13Z" style="fill:#0e7735"/><path d="M87.36,179.05a23,23,0,0,1,.86-11.6c-3.84,3.3-5.6,8.72-4.52,15.81C85.35,194,91,220.7,92,224.49c.67,0,2.31-.22,4.37-.51C94.94,218.14,89.11,190.5,87.36,179.05Z" style="opacity:0.2"/><rect x="179.72" y="357" width="2.37" height="41.02" style="fill:#bebfc3"/><rect x="179.71" y="357" width="2.37" height="41.02" transform="translate(-213.96 238.49) rotate(-45)" style="fill:#bebfc3"/><rect x="160.38" y="376.32" width="41.03" height="2.37" style="fill:#bebfc3"/><rect x="160.39" y="376.32" width="41.01" height="2.37" transform="translate(-213.96 238.48) rotate(-45)" style="fill:#bebfc3"/><path d="M185.63,377.51a4.74,4.74,0,1,1-4.74-4.74A4.74,4.74,0,0,1,185.63,377.51Z" style="fill:#2d2d2d"/><path d="M180.89,400.38a22.88,22.88,0,1,1,22.89-22.87A22.9,22.9,0,0,1,180.89,400.38Zm0-41A18.15,18.15,0,1,0,199,377.51,18.16,18.16,0,0,0,180.89,359.37Z" style="fill:#2d2d2d"/><path d="M180.89,396.92a19.41,19.41,0,1,1,19.41-19.41A19.44,19.44,0,0,1,180.89,396.92Zm0-34.08a14.67,14.67,0,1,0,14.68,14.67A14.68,14.68,0,0,0,180.89,362.84Z" style="fill:#989d97"/><path d="M80.06,303.17c-2.94,0-5.89-4.21-6.59-9.38L60.54,198.05H71.19L85.38,303.17Z" style="fill:#005596"/><rect x="85.38" y="289.56" width="98.42" height="12.62" style="fill:#005596"/><polygon points="183.8 304.54 85.28 304.54 71.09 200.42 36.87 200.42 36.87 195.69 75.22 195.69 89.42 299.81 183.8 299.81 183.8 304.54" style="fill:#2d2d2d"/><path d="M159.53,250.61H91.69a4.22,4.22,0,1,1,0-8.38h67.84a4.22,4.22,0,1,1,0,8.38Z" style="fill:#005596"/><path d="M182.85,380l-3.91-2.67,2.88-19V278.71A11.84,11.84,0,0,0,170,266.88h-3.75v-4.73H170a16.57,16.57,0,0,1,16.56,16.56v81.1Z" style="fill:#2d2d2d"/><path d="M85,302.5l-5.18-38a14.42,14.42,0,0,1,14.63-16.75H152a16.58,16.58,0,0,1,16.56,16.56v37.87h-4.73V264.31A11.84,11.84,0,0,0,152,252.49H94.46a9.68,9.68,0,0,0-9.94,11.37l5.18,38Z" style="fill:#2d2d2d"/><path d="M218,360.06l-20.32-43c-3.14-7-6.78-11.21-7.94-11.58l-4,0V300.8h4.14c5.51,0,11.44,12.9,12.09,14.37l20.46,44.08Z" style="fill:#2d2d2d"/><path d="M201,370.66a2.36,2.36,0,0,1-.87-4.56l43-16.5A2.37,2.37,0,0,1,244.8,354l-43,16.49A2.37,2.37,0,0,1,201,370.66Z" style="fill:#2d2d2d"/><polygon points="184.75 340.24 182.84 335.9 204.47 326.45 206.37 330.77 184.75 340.24" style="fill:#2d2d2d"/><path d="M19.52,191.74h26c2.62,0,4.74,1.85,4.74,4.14v2.76a4.47,4.47,0,0,1-4.74,4.15h-26c-2.61,0-4.74-1.85-4.74-4.15v-2.76C14.78,193.59,16.91,191.74,19.52,191.74Z" style="fill:#005596"/><rect x="98.4" y="268.66" width="2.37" height="129.37" style="fill:#bebfc3"/><polygon points="130.9 389.95 66.22 277.91 68.26 276.74 132.94 388.76 130.9 389.95" style="fill:#bebfc3"/><rect x="98.4" y="268.66" width="2.37" height="129.37" transform="translate(-238.89 252.92) rotate(-60)" style="fill:#bebfc3"/><rect x="34.89" y="332.16" width="129.38" height="2.36" style="fill:#bebfc3"/><polygon points="44.15 366.7 42.97 364.67 155.01 299.97 156.19 302.03 44.15 366.7" style="fill:#bebfc3"/><polygon points="68.26 389.95 66.22 388.76 130.91 276.74 132.94 277.91 68.26 389.95" style="fill:#bebfc3"/><path d="M104.32,333.34a4.74,4.74,0,1,1-4.73-4.73A4.72,4.72,0,0,1,104.32,333.34Z" style="fill:#2d2d2d"/><path d="M99.59,400.38a67,67,0,1,1,67-67A67.12,67.12,0,0,1,99.59,400.38Zm0-129.35a62.32,62.32,0,1,0,62.31,62.31A62.39,62.39,0,0,0,99.59,271Z" style="fill:#2d2d2d"/><path d="M99.59,396.52a63.19,63.19,0,1,1,63.17-63.18A63.25,63.25,0,0,1,99.59,396.52Zm0-121.64A58.46,58.46,0,1,0,158,333.34,58.52,58.52,0,0,0,99.59,274.88Z" style="fill:#989d97"/><path d="M163.35,241.59s1.34,5.12,2.44,6.72,5.48,3.94,3.7,0,5,1.37,5,1.37,3.54,13.19,4.89,13.44,1.36-13.95.7-16.7-6.61-8.93-11.07-10Z" style="fill:#fca"/><path d="M298.36,155.86c-3.26,0-5.82.1-7.15.14H291a29.17,29.17,0,0,0-2.75,1.47,5.11,5.11,0,0,0-.61.48c-10.14,7.44-14.36,7.48-22,5.2s-3.93-9.85-1-10.08c5.83-.53,12.22-5,11.42-5.31s-6.87,1-6.64-.29,4.46-2.18,7.59-3.7c2.41-1.18,6.2.86,9,2.42,0,0,.95-.23,2.56-.71s4.21-1.14,7.1-2L298,154.34Z" style="fill:#e6b496"/><path d="M368.64,89.14a19.07,19.07,0,0,1-2.23,9.15c-2.42,5-10.71,21.32-17.86,34-4.7,8.3-9,15-10.81,16.06-10.52,5.83-44.92,10.57-45.77,10.61l-.76-2.93v0l-.76-3-1.89-7.44v-.05l-.76-3c7.82-2.14,32.84-11.42,37.67-14.84,1-.71,4.26-7.53,8-15.68C338.93,100,345.37,85.35,347,83.65l1.52-1.52c3-3.08,7.15-6.44,11.65-4.69a3,3,0,0,1,.71.24C365.79,80.05,368.54,84.08,368.64,89.14Z" style="fill:#57bbbf"/><path d="M368.64,89.14a19.07,19.07,0,0,1-2.23,9.15c-2.42,5-10.71,21.32-17.86,34-4.7,8.3-9,15-10.81,16.06-10.52,5.83-44.92,10.57-45.77,10.61l-.76-2.93H291a29.17,29.17,0,0,0-2.75,1.47,5.11,5.11,0,0,0-.61.48.11.11,0,0,0-.1-.1c-.85-.09-6.77,2.13-6.73.8s4.13-3,7.11-5a4.38,4.38,0,0,1,2.51-.71,19.8,19.8,0,0,1,6.92,1.66l.66-.29c.43-.19,1.05-.47,1.85-.85l-1.23-2.89c7.58-3.52,31.37-16.92,35.73-21.18,2.13-2.09,11.18-40.38,14.17-47.29,3-3.08,7.15-6.44,11.65-4.69a3,3,0,0,1,.71.24C365.79,80.05,368.54,84.08,368.64,89.14Z" style="opacity:0.2"/><path d="M360.61,391.47c-.11-2.35-.37-4.91-.69-7.06a32.86,32.86,0,0,0-.92-4.63c-.32-.95-.7-1.53-1.19-1.69S338,376,337.4,376.49a48.24,48.24,0,0,1-12.14,5.89,23,23,0,0,1-8.58,1.2,32.91,32.91,0,0,1-3.66-.5c-1.49-.24-3.63-.2-4.86,1a3.92,3.92,0,0,0-1,3.93,4.37,4.37,0,0,0,.27.64c.92,1.8,3.39,5.25,9.46,7.86a16.86,16.86,0,0,0,4.5,1.05l8.41.75a14.29,14.29,0,0,0,4.57-.42,27.74,27.74,0,0,1,2.8-.84,1.56,1.56,0,0,1,1.62.51,14,14,0,0,0,1.25,1.6.94.94,0,0,1,.3.07l10.51.92c4.11-.2,7.83-.93,9.18-2.13a11.24,11.24,0,0,0,.59-4.2C360.67,393.08,360.65,392.28,360.61,391.47Z" style="fill:#2d2d2d"/><path d="M329,379.23l17.4,1.53,7.73.67,7.11.62a2.86,2.86,0,0,1,.05-.62c.67-12.16,6.25-107.83,5.81-116.46-.38-8.83,3.82-36.64,9.3-52.56a57.78,57.78,0,0,0,3-19.32c0-.85,0-1.71-.15-2.58a69.46,69.46,0,0,0-1.67-12,17.44,17.44,0,0,0-.62-2.57,59,59,0,0,0-3-8.92l-29.05,5-4.48,58.09c0,.06.06.11,0,.15Z" style="fill:#43a3b3"/><rect x="255.55" y="139.4" width="42.21" height="35.26" style="fill:#ff745f"/><rect x="255.55" y="139.4" width="42.21" height="1.62" style="opacity:0.2"/><rect x="253.29" y="127.1" width="46.73" height="12.3" style="fill:#fe4230"/><rect x="272.33" y="127.1" width="8.65" height="47.56" style="fill:#fcbb47"/><rect x="272.33" y="119.93" width="8.65" height="7.17" style="fill:#ffcc9a"/><polygon points="291.96 127.1 280.98 127.1 280.98 119.93 291.96 111.95 291.96 127.1" style="fill:#fcbb47"/><polygon points="261.36 127.1 272.33 127.1 272.33 119.93 261.36 111.95 261.36 127.1" style="fill:#fcbb47"/><path d="M382.81,390.88a70.7,70.7,0,0,0-1.31-7,32.77,32.77,0,0,0-1.32-4.54c-.4-.91-.84-1.45-1.32-1.59s-19.94-.34-20.48.19a48.2,48.2,0,0,1-11.58,6.94,22.62,22.62,0,0,1-8.44,1.93,33.49,33.49,0,0,1-3.7-.16c-1.5-.13-3.62.12-4.76,1.43a3.94,3.94,0,0,0-.6,4,4.37,4.37,0,0,0,.32.6c1.08,1.72,3.85,4.94,10.11,7a17.72,17.72,0,0,0,4.58.66h8.44a14.11,14.11,0,0,0,4.52-.82A23.67,23.67,0,0,1,360,398.5a1.51,1.51,0,0,1,1.65.36,11.76,11.76,0,0,0,1.38,1.48,1,1,0,0,1,.31,0h10.55c4.08-.55,7.72-1.62,9-2.91a11.41,11.41,0,0,0,.21-4.24C383,392.48,382.92,391.69,382.81,390.88Z" style="fill:#474747"/><path d="M340.41,230.14c0,.06.06.11,0,.15,2.58,57.62,5.63,142.12,6,150.47v.67h14.89c.67-12.16,6.25-107.83,5.81-116.46-.38-8.83,3.82-36.64,9.3-52.56a57.78,57.78,0,0,0,3-19.32c0-.85,0-1.71-.15-2.58a69.46,69.46,0,0,0-1.67-12,17.44,17.44,0,0,0-.62-2.57,59,59,0,0,0-3-8.92l-29.05,5Z" style="opacity:0.2"/><path d="M339.65,166.14s.38,4.19.76,8.64c.06.81.11,1.67.19,2.52.15,2.64.33,5.06.48,6.4.09,1.57.24,3.33.33,5.4.06.8.1,1.6.2,2.51,2.61,47.13,7.77,189.82,7.77,189.82h33.19c-.28-9-3.15-108.4-4.33-117.14s.57-36.81,4.66-53.18a57,57,0,0,0,1.24-19.5c-.09-.85-.18-1.66-.32-2.51a70.54,70.54,0,0,0-2.72-11.8,17.41,17.41,0,0,0-.86-2.52,60.65,60.65,0,0,0-3.72-8.64Z" style="fill:#57bbbf"/><path d="M382.58,381.43h-3.94c-.86-30.07-3.1-108-4.13-116-1.21-9.53.57-39.9,4.79-57.69,3-12.55,1.47-25.7-1.86-36.63a18,18,0,0,0-.89-2.75c-.24-.78-.54-1.48-.81-2.23h.78a58,58,0,0,1,3.72,8.65,19.44,19.44,0,0,1,.86,2.54c3.21,10.09,4.7,22.2,1.8,33.77-4.09,16.39-5.82,44.41-4.64,53.19S382.28,372.47,382.58,381.43Z" style="opacity:0.2"/><path d="M346.94,62.47a18.67,18.67,0,0,1,.2,2.78,31.6,31.6,0,0,1-1.91,9.9s17.12-4.65,21.77-9c-1.05-2.33-1.73-6.48-2.17-10.62-.62-5.33-.87-10.83-.93-12.94v-.92S341,50.22,345.23,57.27a5.82,5.82,0,0,1,.61,1.24A11.87,11.87,0,0,1,346.94,62.47Z" style="fill:#fdb171"/><path d="M339.38,189.1h45.08s-7.7-84-7.7-103.43c0-9-8.57-21.82-9.35-23.75-4.28,2.73-20.25,9.73-21.4,9.34s-8.18,10.51-10.52,16-1.17,25.31,0,32.7S339.58,184.65,339.38,189.1Z" style="fill:#57bbbf"/><path d="M374.92,83.13a32.08,32.08,0,0,0-1.63-10c1.87,4.12,3.47,8.65,3.47,12.51,0,19.47,7.7,103.43,7.7,103.43H378C377,166.83,374.25,100.75,374.92,83.13Z" style="opacity:0.2"/><path d="M345.23,57.27a5.82,5.82,0,0,1,.61,1.24,11.87,11.87,0,0,1,1.1,4c4.1-1.75,11.89-6.75,14.42-9.35,2.3-2.46,2.54-8.28,2.54-10.51v-.92S341,50.22,345.23,57.27Z" style="opacity:0.2"/><path d="M342.19,11.33c-3.17,2.26-4.33,6.63-5.3,10s-2.05,5.58-1.64,6.58a18.69,18.69,0,0,0,1,2.39c.38.66-4.64,11.26-4.18,12.12s3.1,1.06,3.63,1.21c1.17.34,1.11,1.63,1.1,2.46s-1.39,2-1.31,2.58,2.77.84,2.77.84-2.08,1.13-1.94,1.67,1.2.53,1.77,1.08-1.23,4.23-.43,5.27c2.95,3.78,12.85,1.58,19-2.32,5.51-3.5,9.13-6.68,10.2-7.37,2.29-1.51,11.61-17.89,8.65-25.28S366.86,9,360.26,8.15,346.71,8.12,342.19,11.33Z" style="fill:#fdb171"/><path d="M338,11.86c2.38-1.31,8.12-6.28,16.49-7.15,8.55-.87,16.14,1.11,21.37,8.44a22.39,22.39,0,0,1,3.1,16.45c-1.48,6.43-5.22,11.7-7.59,15.24-3.22,4.83-7,8.67-6.61,9.82-2.93-3.6-2.66-12.79-2.92-14.9,1.29-1.09,5.51-8.24,1.9-10.61s-7.67,2-9.6,7.32c-1.42-5.57-1.48-11.78-4.23-15.85-2.24-2.13-10.58-1.62-13-2.77C333.2,16.11,335.61,13.17,338,11.86Z" style="fill:#2d2d2d"/><path d="M338,11.86c2.38-1.31,8.12-6.28,16.49-7.15,8.55-.87,16.14,1.11,21.37,8.44a22.39,22.39,0,0,1,3.1,16.45c-1.48,6.43-5.22,11.7-7.59,15.24-3.22,4.83-7,8.67-6.61,9.82-2.93-3.6-2.66-12.79-2.92-14.9,1.29-1.09,5.51-8.24,1.9-10.61s-7.67,2-9.6,7.32c-1.42-5.57-1.48-11.78-4.23-15.85-2.24-2.13-10.58-1.62-13-2.77C333.2,16.11,335.61,13.17,338,11.86Z" style="fill:#2d2d2d"/><path d="M341.41,189.1c.06.8.1,1.6.2,2.51h42.53c-.09-.85-.18-1.66-.32-2.51Z" style="opacity:0.2"/><path d="M279.58,179.86c8.27,1.07,12.61.27,22-9.44a26.34,26.34,0,0,1,2.53-1.94c1.3-.29,4-.78,7.41-1.38l-4.74-12c-5.34,2.52-9.3,4.3-9.37,4.3-3.05-1.14-7.21-2.55-9.47-.94-2.95,2-7.07,3.64-7.06,5s5.83-.88,6.72-.78-4.85,5.71-10.68,7.2C274,170.51,271.28,178.77,279.58,179.86Z" style="fill:#fdb171"/><path d="M298.63,155.36c7.6-3.5,31.38-17,35.73-21.22C336.6,132,346.61,89.42,349,86c2.72-3.91,6.93-10.1,13.07-8.29,8.28,2.48,12,9.86,8.95,20-2.71,9.14-16.56,51.92-20.86,55.3-9.72,7.68-43.72,18.11-44.61,18.27Z" style="fill:#57bbbf"/><polygon points="367 59.5 370.8 66.13 343.68 78.25 346.01 71.26 367 59.5" style="fill:#57bbbf"/><path d="M336.17,13S321.73,15.36,320,16c5.24,12.14,19.2,10.63,32.39,6.45C347.31,20.12,337.35,15.17,336.17,13Z" style="fill:#57bbbf"/><path d="M336.17,13S321.73,15.36,320,16c.23.54.5,1,.76,1.51C324.38,16.32,332,14.12,336.17,13Z" style="opacity:0.2"/><path d="M336.17,13c6.65-13.28,24.1-14.36,31.69-11,11.64,5.16,17.4,20.44,10.95,30.7C371.3,31.07,339.64,18.77,336.17,13Z" style="fill:#57bbbf"/><path d="M367.86,2c-5.74-2.55-17.13-2.54-25.2,3.37,8-4.88,18.52-4.75,24-2.35C378,8,383.84,22.38,378.41,32.6l.4.1C385.26,22.44,379.5,7.16,367.86,2Z" style="opacity:0.2"/></svg>