<svg xmlns="http://www.w3.org/2000/svg" viewBox="0 0 400 400"><title>VE-Volunteer-img</title><path d="M167,342.63a53.21,53.21,0,0,0,6.46,7c2.87,2.33,8.26,6,7.9,11.66s-17.6,2-20.47,0-9-8-11.13-7.82-6.09-1.46-5.56-7.31S163.76,338.79,167,342.63Z" style="fill:#073b5b"/><path d="M148.08,192.59c1.55,10.33,5.8,27.33,7.34,43.65s-.77,24.32,0,32.32,4.63,13,5.4,22.66,1.94,34.65,2.71,38.31,3.48,11.34,3.48,13c0,0-12.42-2-22.85,4.33,0,0-1.49-2-3-15.33s-5-41.31-6.17-47.31-17.38-58-19.31-58.31V195.59Z" style="fill:#403834"/><path d="M65.3,342.63a53.58,53.58,0,0,1-6.47,7c-2.87,2.33-8.25,6-7.9,11.66s17.6,2,20.47,0,9-8,11.13-7.82,6.09-1.46,5.56-7.31S68.53,338.79,65.3,342.63Z" style="fill:#073b5b"/><path d="M84.22,192.59c-1.55,10.33-5.8,27.33-7.34,43.65s.77,24.32,0,32.32-4.63,13-5.4,22.66-1.94,34.65-2.71,38.31-3.47,11.34-3.47,13c0,0,12.4-2,22.83,4.33,0,0,1.49-2,3-15.33s5-41.31,6.19-47.31,17.37-58,19.3-58.31V195.59Z" style="fill:#403834"/><path d="M169.38,140.06c1.74,6.55,5,13.3,5,19.3s-3.25,34.73-3.25,34.73l-13-3.5s1.75-5.5,1.75-8.74-2-16-1.75-22.49-3.25-15-3.25-15Z" style="fill:#fdb171"/><path d="M115.65,78.65V202.84s21,.75,39-8.25a76.15,76.15,0,0,0-2.75-14.24c-2-6-5-48.23-5-48.23l9.51,18.24,14.73-8.49s-3-10.25-3.49-14.75-6.75-27.49-14.25-33.23-19-10-22.24-12-6.74-6.5-6.74-6.5Z" style="fill:#57bbbf"/><path d="M116.65,78.65V202.84s-21,.75-39-8.25a75.25,75.25,0,0,1,2.75-14.24c2-6,5-48.23,5-48.23l-8,17.24-14.73-8.49s3-10.25,3.49-14.76,5.25-26.48,12.74-32.22,19-10,22.25-12,6.74-6.5,6.74-6.5Z" style="fill:#57bbbf"/><path d="M68.67,129.37c-2.75,4-6.91,9.75-6.58,16.24s3.83,13.75,6.58,13.75,10-1,11-3,4.5-8,4.5-8-8.86-7.77-7.8-9.75l1.55-3.24Z" style="fill:#fdb171"/><path d="M125.39,78.22s2.37,2.48,1.79,4.48-6,7.66-11.53,7.5V79.87Z" style="fill:#f09f5b"/><path d="M82.88,114.22l.26,1.72h.07l.29-1.74,2-6h2.1l-3.78,10.26H82.34l-3.81-10.26h2.31Z" style="fill:#fff"/><path d="M87.43,113.32a6,6,0,0,1,1.12-3.91,3.88,3.88,0,0,1,3.2-1.38,4.52,4.52,0,0,1,1.91.37A3.66,3.66,0,0,1,95,109.48a4.68,4.68,0,0,1,.8,1.68,8.08,8.08,0,0,1,.27,2.16A6.07,6.07,0,0,1,95,117.25a3.93,3.93,0,0,1-3.2,1.37,4.53,4.53,0,0,1-1.92-.38,3.45,3.45,0,0,1-1.34-1.08,4.63,4.63,0,0,1-.8-1.67A8.55,8.55,0,0,1,87.43,113.32Zm2.1,0a7,7,0,0,0,.13,1.42,3.62,3.62,0,0,0,.39,1.11,2.14,2.14,0,0,0,.7.73,1.82,1.82,0,0,0,1,.26A1.89,1.89,0,0,0,93.4,116a4.83,4.83,0,0,0,.58-2.69,6.74,6.74,0,0,0-.13-1.38,3.6,3.6,0,0,0-.38-1.12,2.06,2.06,0,0,0-.68-.75,2,2,0,0,0-2.68.59A4.75,4.75,0,0,0,89.53,113.32Z" style="fill:#fff"/><path d="M104,118.42H97.5V108.23h2v8.41H104Z" style="fill:#fff"/><path d="M110.51,108.23h1.89v6.58a5.06,5.06,0,0,1-.26,1.7,3.24,3.24,0,0,1-.73,1.18,2.85,2.85,0,0,1-1.14.68,4.52,4.52,0,0,1-1.46.22c-2.59,0-3.87-1.18-3.87-3.54v-6.82h2v6.44a3.59,3.59,0,0,0,.11,1,1.56,1.56,0,0,0,.34.68,1.3,1.3,0,0,0,.58.36,2.86,2.86,0,0,0,.82.11,1.62,1.62,0,0,0,1.32-.51,2.65,2.65,0,0,0,.41-1.64Z" style="fill:#fff"/><path d="M116.64,113.11l-.81-1.6h-.07l.23,1.6v5.31H114.1V108.16h1.46l3.86,5.43.77,1.55h.07l-.23-1.55v-5.36h1.89v10.26h-1.46Z" style="fill:#fff"/><path d="M130.9,110h-3v8.41h-2V110h-3v-1.78h8Z" style="fill:#fff"/><path d="M131.93,108.23h6V110h-4.05v2.37h3.68v1.77h-3.68v2.49H138v1.78h-6.11Z" style="fill:#fff"/><path d="M139.52,108.23h6V110h-4v2.37h3.68v1.77h-3.68v2.49h4.12v1.78h-6.12Z" style="fill:#fff"/><path d="M147.12,108.34l.72-.11c.26,0,.51-.07.77-.09s.5,0,.75,0l.66,0a8.21,8.21,0,0,1,1.41.12,4.08,4.08,0,0,1,1.24.46,2.5,2.5,0,0,1,.87.87,2.78,2.78,0,0,1,.33,1.41,3.4,3.4,0,0,1-.58,2,3.07,3.07,0,0,1-1.56,1.09l.71.45,2.33,3.89h-2.3l-2.31-4-1-.18v4.17h-2Zm3,1.52h-.6a2.24,2.24,0,0,0-.46.06v3H150a2.09,2.09,0,0,0,1.32-.38,1.46,1.46,0,0,0,.5-1.25,1.26,1.26,0,0,0-.41-1A1.68,1.68,0,0,0,150.17,109.86Z" style="fill:#fff"/><path d="M106.91,78.22s-2.38,2.48-1.79,4.48,6,7.66,11.53,7.5V79.87Z" style="fill:#f09f5b"/><path d="M74.61,140.06l-11.28-1.45a44.88,44.88,0,0,1,5.34-9.24l9.74,5.35-2,3.89a1.7,1.7,0,0,0,.23,1.45Z" style="fill:#3fb2ac"/><path d="M216.7,264.59a3.54,3.54,0,0,0,5,0h0a3.54,3.54,0,0,0,0-5L82.39,120.29a3.51,3.51,0,0,0-5,0h0a3.51,3.51,0,0,0,0,5Z" style="fill:#bc8357"/><path d="M45.85,88.73C62,72.59,95.72,109.67,95.72,109.67c-9.16,9.15-11.35,12.59-11.35,12.59l9.37,9.37-2.5,2.49-2.5,2.51-9.37-9.37s-3.44,2.18-12.6,11.35C66.77,138.61,29.28,105.28,45.85,88.73Z" style="fill:#403834"/><path d="M84.37,122.26S64.69,102,62.09,105l29.15,29.15,2.5-2.49Z" style="fill:#70625b"/><path d="M79.37,127.26S59.07,107.58,62.09,105l29.15,29.15-2.5,2.51Z" style="fill:#70625b"/><path d="M171.38,192l-12.62-3.61s-1.25,3.5-2.5,6-3.56,6.2-4.56,8.44-2.06,4.2-.31,5.46,2.93.33,2.93.33a3,3,0,0,0,1.44,3.1c1.87,1.26,2.75,0,2.75,0a2.63,2.63,0,0,0,1.12,3.05c1.81,1.32,2.94,0,2.94,0a2.29,2.29,0,0,0,1.06,2.64c1.63,1.06,2.81.79,3.38-.53s3.24-8.41,3.67-10.2-.11-6.41-.05-7.93S171.38,192,171.38,192Z" style="fill:#073b5b"/><path d="M115.65,86.13c4.25,0,9.24-4.49,11.62-9s3-9.62,3.87-13.74,2.13-17.5-1.49-21.62-9.5-5.62-14-5.75Z" style="fill:#fdb171"/><path d="M130.77,59c.75-.87,3-1.5,3,0s-1.61,2.5-1.68,4.63-.73,4.79-3,4.89S130.77,59,130.77,59Z" style="fill:#fdb171"/><path d="M116.65,86.13c-4.25,0-9.24-4.49-11.62-9s-3-9.62-3.87-13.74S99,45.9,102.65,41.78s9.5-5.62,14-5.75Z" style="fill:#fdb171"/><path d="M101.53,59c-.75-.87-3-1.5-3,0s1.62,2.5,1.69,4.63.73,4.79,3,4.89S101.53,59,101.53,59Z" style="fill:#fdb171"/><path d="M129.65,41.78c2.74,3.12,2.68,11.55,2.12,17.24,0,0-1,2.38-1.46,4.14,0,0-1.66-12.75-4.75-13.76s-2.75,1.83-9.91,1.83V36C120.15,36.16,126,37.66,129.65,41.78Z" style="fill:#403834"/><path d="M102.65,41.78C99.91,44.9,100,53.33,100.53,59c0,0,1,2.38,1.46,4.14,0,0,1.66-12.75,4.75-13.76s2.75,1.83,9.91,1.83V36C112.15,36.16,106.28,37.66,102.65,41.78Z" style="fill:#403834"/><path d="M83.43,149.62a3.35,3.35,0,0,1,2.86-1.76c2.24-.25,5.24-2.5,6.12-3.49s3.37-2.9,6.5-5.76,3.83-4.25,3-5.53A2.44,2.44,0,0,0,99.53,132a2.1,2.1,0,0,0-.75-2.62,2,2,0,0,0-2.63,0s.68-1.75-.43-2.68a2.76,2.76,0,0,0-2.64-.32,1.76,1.76,0,0,0-.49-1.94c-.93-.87-3.43.07-5.37,1.06a44.4,44.4,0,0,0-6.74,5.13,18.18,18.18,0,0,0-4.69,6.62c-1.56,3.69-2,4.94-2,4.94S74.64,148.82,83.43,149.62Z" style="fill:#073b5b"/><path d="M269,69.81c1.11,2.8,10.23,4.69,8.48,14.07s-16.78,1.06-16.78,1.06l-2.87-14.22,4.9-3.64Z" style="fill:#d35500"/><path d="M245.56,68c2.32,4.29,2.63,8.87,1.66,11.63s-6.23,6-3.46,10.24,18.93,0,18.93,0Z" style="fill:#d35500"/><path d="M247.88,72.33c1.55,6.23,3.64,14.56-1.77,15s-12.66,2.06-13.18,11.63-1.52,25.33-2.27,37.39,0,35.58,0,35.58l50-1.53S276,149.6,277.69,140s2.81-21.18,2.81-21.18,3.64,10.28,5,16.47,11.65,16.93,11.65,16.93L300.79,133s-4.05-5.4-4-14.85c.08-14.46-1.93-28.52-10.79-32.39s-21.48-2.5-21.82-4.16-2.29-16.7-2.29-16.7Z" style="fill:#fdb171"/><path d="M235.79,58s-4.77-5.34-2.86-11.3c1.48-4.61,4.47-13.83,12.51-14.77C255.19,30.83,235.79,58,235.79,58Z" style="fill:#d35500"/><path d="M236.08,59.76a2.44,2.44,0,0,0,1,3.33l2.46,1.33a2.46,2.46,0,0,0,3.32-1h0a2.45,2.45,0,0,0-1-3.35l-2.47-1.33a2.48,2.48,0,0,0-3.33,1Z" style="fill:#663c4b"/><path d="M234.93,47.44c1.28-8,5.24-16.22,16.37-16.22,11.72,0,18.06,9.77,18.34,16.24a34.65,34.65,0,0,1-1.24,11.86c-.44,1.31-5.83,4.82-6.89,8.84S234.93,47.44,234.93,47.44Z" style="fill:#d35500"/><path d="M262.34,62c-.43,2.26.2,5.54.35,8.92-.83.54-2.27,1.62-3.34,2.23a32.89,32.89,0,0,1-13.24,4.48s.76-1.16,1.93-2.88L262.24,62A.3.3,0,0,0,262.34,62Z" style="fill:#f09f5b"/><path d="M262.74,62.33c-.82,2.29-1.23,5.42-4.95,8.39s-9.75,6.93-11.68,6.93-3.38.56-6.28-4.3-5.05-7.11-5.25-12.07-2.14-15.06,4-18.81c4.54-2.78,12-1.48,15.9,2.54s4,5.52,5.42,11.88c0,0,3.29-4.39,4.59-4.57s2.43.64,1.69,3.36-1.4,2.27-1.49,3.65-.25,2.77-.94,3.26C262.9,63.2,262.74,62.33,262.74,62.33Z" style="fill:#fdb171"/><path d="M240.76,41.42s8,14.27,19.09,16.59l4.33-13-10.27-7.66Z" style="fill:#d35500"/><path d="M242.94,41.93s-4.7,8-9.35,10.36c0,0-1-11.12,5.39-16.32Z" style="fill:#d35500"/><path d="M240.38,88.34s-9.27,3-10.07,16.41-.43,24.33-.43,24.33l5.91.06Z" style="fill:#3fb2ac"/><path d="M256.32,31.87c2.08.72,12.92,4.17,15.27,18.42.74,4.52-.28,11.68-2.63,19.52l-6.27,1.13A54.7,54.7,0,0,1,262.2,64a11.37,11.37,0,0,0,6.15-11.35c-.63-8.37-8.11-13-8.11-13Z" style="fill:#d35500"/><path d="M294.56,337.2c2.52,6.43,10.79,24.09,1.47,26.79-10.77,3.11-10.77-25.18-10.77-25.18Z" style="fill:#073b5b"/><path d="M281.22,241.57c.27,7.64-.22,13.47,4,22.22s5.1,17.53,5.1,32.23a274.78,274.78,0,0,0,2.77,35.45c.57,3.4,6.24,19.22,0,20.09s-7.66-9.91-8.51-17.82-7.33-26-11.36-39c-3.57-11.55-5.88-25.07-5.66-29.13.32-5.47-4.89-36.07-4.89-36.07Z" style="fill:#fdb171"/><path d="M252.39,338.15s6.29,30.33-7.7,27.82c-9.67-1.76-1.64-27.82-1.64-27.82Z" style="fill:#073b5b"/><path d="M253.74,243.27c-.82,3-1.71,7.63-1.42,10.17s4,11.89,3.4,20.36-2.66,33.07-3.44,43-.93,14.72,0,20.38-.81,18.08-5.36,18.08-5.37-9.9-3.67-18.08.06-16.42-.82-21.78-4.81-39.73-5.15-44.28c-.56-7.64,1-13.67.53-17.64s-4.2-16.38-4.2-16.38Z" style="fill:#fdb171"/><path d="M279.27,162.17c3.46,9.5,6.61,30.64,8,53.23,1.15,18.38,13,129.67,13,129.67s-7.1.77-20.92.22c-1.45-.06-21.08-136.73-22.53-136.8s3.1,136.58,3.1,136.58c-10-.78-16.46.19-23-1.32,0,0-1.65-27.54-1.65-42.24,0-8.53-7.13-132.19.3-143.63Z" style="fill:#663c4b"/><path d="M283.38,129.14s13.92-4,18.12-7.15c0,0-6.84-24.67-8.59-29s-3.84-7.64-16.28-9.51-8.9,22.61-8.9,22.61l11.64,9.31,2.36,8.47Z" style="fill:#57bbbf"/><path d="M283.17,119.82s-5.65-5.65-6.19-13.12c-.44-6.33-3.65-6.54.61-23.43L271,82.7s-4.57,5.4-14.82,7.27c-8.07,1.47-13-2.32-13-2.32s-2.24.5-2.8.69a15,15,0,0,0-2.21,1.06s-6.51,14.39-7.51,17.82c-1.32,4.57-3.66,11.84,3.49,19.12,0,0-2.21,48.43-5.11,64.23,0,0,35.15,7.45,57.12.64C286.16,191.21,279.37,141.78,283.17,119.82Z" style="fill:#57bbbf"/><path d="M332.27,14.84c-1,3.47-2.15,6.88-3.28,10.3L325.5,35.37Q322,45.6,318.58,55.86c-2.25,6.85-4.45,13.73-6.42,20.68-1,3.48-1.88,7-2.63,10.54l-2.29,10.57c-3,14.11-5.91,28.24-8.46,42.45-1.28,7.11-2.46,14.24-3.38,21.44-.46,3.59-.87,7.2-1.06,10.88,0,.93-.07,1.86-.07,2.8l.06,2.72c0,1.77,0,3.55,0,5.33-.19,7.13-.82,14.29-1.39,21.48-.29,3.6-.57,7.19-.75,10.83-.1,1.82-.17,3.64-.2,5.46,0,.92,0,1.84,0,2.76l.08,2.71c0,3.5-.14,7.09-.34,10.66s-.48,7.17-.78,10.74c-.6,7.16-1.33,14.32-2.14,21.46S287,283.65,286,290.75q-.79,5.33-1.73,10.63c-.63,3.49-1.38,7.08-2,10.64-2.45,14.28-4.14,28.62-5.6,43l4,.33c.55-7.14,1.24-14.32,2.1-21.45s1.8-14.25,3-21.33c.57-3.56,1.23-7,1.91-10.62s1.22-7.14,1.77-10.72c1.08-7.15,2-14.32,2.84-21.49s1.59-14.36,2.21-21.56c.3-3.61.58-7.21.8-10.83s.4-7.24.37-10.94c-.29-7.13.37-14.22.87-21.42s1.14-14.39,1.3-21.68c.05-1.82.06-3.64,0-5.48l-.07-2.68c0-.86,0-1.73.05-2.61.14-3.52.52-7.08.94-10.63.86-7.11,1.94-14.23,3.07-21.32,2.3-14.21,4.87-28.39,7.59-42.54l2.07-10.6c.68-3.54,1.46-7,2.34-10.51,1.77-7,3.78-13.88,5.85-20.78s4.22-13.78,6.37-20.66l3.22-10.32C330.31,21.78,331.38,18.33,332.27,14.84Z" style="fill:#855c3d"/><path d="M300.18,138.72a26.73,26.73,0,0,1,2.46-5c1-1.66,2-3.29,3-4.92,2.08-3.24,4.22-6.45,6.39-9.65l6.52-9.59c1.08-1.61,2.17-3.2,3.2-4.87s1.93-3.39,2.8-5.13c1.71-3.49,3.25-7.06,4.65-10.66a62.1,62.1,0,0,0,3.38-11.13A13.43,13.43,0,0,1,335.53,73a46.18,46.18,0,0,1,4-4.12,103.13,103.13,0,0,1,9-7.27,106.41,106.41,0,0,0-9.19,7.08,49.78,49.78,0,0,0-4.16,4.06,14,14,0,0,0-3.14,5,60.31,60.31,0,0,1-3.59,11c-1.46,3.57-3.07,7.08-4.85,10.5-.89,1.69-1.82,3.38-2.85,5s-2.17,3.17-3.28,4.74l-6.73,9.46c-2.23,3.15-4.46,6.32-6.61,9.55-1.08,1.61-2.14,3.23-3.16,4.9a28.66,28.66,0,0,0-2.76,5.35Z" style="fill:#855c3d"/><path d="M307.15,108.73c-.21-9,.17-18.08.19-27.18a67.84,67.84,0,0,0-1-13.67,37.79,37.79,0,0,1-1.09-13.32c.14-2.25.38-4.5.55-6.77.08-1.14.15-2.28.12-3.44s-.07-2.26-.09-3.39l-.12-13.6L305.57.17l-.4,27.19L305,41c0,1.14,0,2.28,0,3.41s-.08,2.23-.18,3.34c-.21,2.25-.5,4.51-.68,6.78a54.06,54.06,0,0,0-.17,6.86,33.08,33.08,0,0,0,.33,3.44c.16,1.14.48,2.31.71,3.36a67.1,67.1,0,0,1,.76,13.4c-.19,9-.73,18.1-.69,27.2Z" style="fill:#855c3d"/><path d="M313,80.5a72.51,72.51,0,0,1,6.62-8c2.38-2.58,4.82-5.12,7.23-7.69s4.82-5.16,7.08-7.9c1.12-1.37,2.22-2.78,3.21-4.26a24.46,24.46,0,0,0,1.4-2.31c.42-.82.77-1.58,1.19-2.36,3.34-6.15,7.13-12.11,10.88-18.06s7.61-11.85,11.5-17.72q-6,8.67-11.92,17.45c-3.9,5.87-7.82,11.71-11.34,17.86-.44.76-.84,1.6-1.24,2.33s-.9,1.46-1.39,2.18c-1,1.41-2.11,2.76-3.24,4.08-2.29,2.65-4.74,5.16-7.2,7.67s-5,5-7.43,7.52a76.78,76.78,0,0,0-7,8.1Z" style="fill:#855c3d"/><path d="M305,60.69c-2.4-6.26-4.92-12.45-7.44-18.64L290,23.5l7.16,18.73c2.36,6.26,4.72,12.51,6.95,18.8Z" style="fill:#855c3d"/><path d="M341.53,377.38l-11-4.07h0c-5.18-1.19-1.6-1.21-6.72-2.66a103.64,103.64,0,0,1-15-5.28c-4.86-2.19-9.79-4.23-14.68-6.31s-9.8-4.17-14.52-6.57l-.45.89c4.8,2.36,9.73,4.39,14.66,6.41s9.88,4,14.75,6.11a103.09,103.09,0,0,0,15.16,5.1c5.14,1.39,1.59,1.33,6.8,2.46h0Z" style="fill:#855c3d"/><path d="M278.2,355.38c2.32,6.44,4.56,12.92,6.78,19.39v-.11a62.45,62.45,0,0,0,0,7.24,13.43,13.43,0,0,0,.6,3.59,2.29,2.29,0,0,0,.51.84,7.31,7.31,0,0,1,.6.64c.38.46.74.93,1.11,1.41,2.87,3.85,5.57,7.82,8.27,11.79-2.62-4-5.24-8-8-12-.35-.49-.71-1-1.09-1.45a6.55,6.55,0,0,0-.61-.69,1.85,1.85,0,0,1-.41-.7,13.5,13.5,0,0,1-.51-3.49,63.76,63.76,0,0,1,.18-7.18v-.06l0-.05c-2.09-6.53-4.2-13-6.39-19.53Z" style="fill:#855c3d"/><path d="M279.35,352.43a22.37,22.37,0,0,0-4.1.78c-1.32.33-2.63.66-3.95,1a25.1,25.1,0,0,1-8,.77,13.54,13.54,0,0,0-2.06-.22c-.7,0-1.38,0-2.07,0-1.37.07-2.73.19-4.08.34-2.72.29-5.42.68-8.11,1.1-5.39.81-10.75,1.86-16.1,2.83l-16.09,2.82L231,359.26c5.38-.88,10.74-1.85,16.13-2.58,2.69-.38,5.39-.71,8.09-1,1.36-.13,2.71-.23,4.06-.28.68,0,1.35,0,2,0a16.15,16.15,0,0,1,2,.25c5.62.64,11-1.65,16.15-2.26Z" style="fill:#855c3d"/><path d="M279.06,355c3.42,2.23,6.83,4.65,10.43,6.71a22.48,22.48,0,0,0,2.82,1.41c1,.34,1.94.67,2.91,1.07,1.91.76,3.79,1.6,5.66,2.49s3.7,1.8,5.5,2.82c.91.48,1.73,1.08,2.68,1.56a16.65,16.65,0,0,0,2.95,1,45.51,45.51,0,0,0,6.11,1.1l3.08.33a26,26,0,0,1,3.07.41,24.31,24.31,0,0,0-3.06-.47l-3.07-.39a47.45,47.45,0,0,1-6.06-1.22,15.7,15.7,0,0,1-2.87-1.08c-.9-.45-1.74-1.1-2.65-1.6-1.78-1.05-3.61-2-5.47-2.95s-3.73-1.8-5.64-2.61c-.93-.41-1.95-.79-2.89-1.12a24,24,0,0,1-2.69-1.43c-3.53-2.12-6.82-4.56-10.28-6.91Z" style="fill:#855c3d"/><path d="M278.5,352.46a23.39,23.39,0,0,0-3.75,2c-1.18.72-2.36,1.46-3.52,2.21-2.33,1.48-4.63,3-7,4.31a9,9,0,0,1-.9.41,1.54,1.54,0,0,1-.42.11h-.06l-.06,0-.25-.06a10.24,10.24,0,0,0-2.12-.31,13.19,13.19,0,0,0-4.2.51,19.4,19.4,0,0,0-3.9,1.57c-1.26.62-2.39,1.46-3.58,2.09a60.53,60.53,0,0,1-7.57,3.29c-2.6,1-5.22,1.83-7.85,2.68l-3.95,1.29c-.65.21-1.31.44-2,.69a7.82,7.82,0,0,0-1,.4,1.31,1.31,0,0,0-.44.31,2,2,0,0,1-.38.32,28.26,28.26,0,0,1-3.69,1.85c-1.27.56-2.55,1.09-3.83,1.6,1.29-.49,2.57-1,3.85-1.54a26.82,26.82,0,0,0,3.74-1.81,2.53,2.53,0,0,0,.42-.33,1,1,0,0,1,.4-.28c.3-.14.63-.26,1-.38.65-.23,1.31-.45,2-.66l4-1.22c2.65-.82,5.29-1.65,7.9-2.57a61.23,61.23,0,0,0,7.68-3.19c1.26-.65,2.37-1.46,3.6-2a19,19,0,0,1,3.81-1.47,12.63,12.63,0,0,1,4-.42,9.51,9.51,0,0,1,2,.32l.24.06.19,0a1.33,1.33,0,0,0,.2,0,3,3,0,0,0,.59-.15,8,8,0,0,0,1-.43c2.5-1.28,4.81-2.8,7.17-4.24,1.18-.73,2.35-1.45,3.53-2.15a23.55,23.55,0,0,1,3.6-1.84Z" style="fill:#855c3d"/><path d="M278.37,355.63A46.64,46.64,0,0,1,284.8,361c2,2,3.89,4.14,5.93,6.06,1.88,2.07,3.56,4.37,5.36,6.56a39,39,0,0,0,2.84,3.21,8.09,8.09,0,0,0,.81.73c.29.23.63.41.89.6.54.41,1.08.88,1.61,1.35a37.56,37.56,0,0,0,6.8,5.13,16.29,16.29,0,0,0,4,1.58,13.84,13.84,0,0,0,2.11.34,18.39,18.39,0,0,1,2.06.43c5.46,1.54,10.25,4.75,15.08,7.64-4.79-3-9.53-6.24-15-7.88a15.13,15.13,0,0,0-2.1-.46,16,16,0,0,1-2.07-.37,16.58,16.58,0,0,1-3.87-1.61,37.17,37.17,0,0,1-6.65-5.18c-.53-.48-1.05-.95-1.63-1.4-.31-.23-.6-.39-.86-.6s-.51-.45-.76-.7c-1-1-1.86-2.1-2.74-3.2-1.76-2.21-3.4-4.51-5.3-6.67-2-2-3.85-4.13-5.86-6.18a47.36,47.36,0,0,0-6.47-5.6Z" style="fill:#855c3d"/><path d="M278.94,350.47a15.08,15.08,0,0,0-.69,2l-.58,1.88a38.44,38.44,0,0,1-1.35,3.68,10.48,10.48,0,0,1-2,3.24,7.31,7.31,0,0,1-1.54,1.05c-.57.31-1.16.6-1.75.89-2.38,1.11-4.82,2.12-7.25,3.17-1.21.52-2.43,1-3.63,1.62-.6.29-1.2.58-1.78.9a9.71,9.71,0,0,0-.87.54,4.18,4.18,0,0,0-.42.34l-.35.36c-1.85,1.88-3.73,3.73-5.67,5.53-1,.89-1.95,1.77-3,2.61a16.28,16.28,0,0,1-3.23,2.22,23.93,23.93,0,0,0-3.6,1.66c-1.16.64-2.31,1.29-3.45,2-2.29,1.32-4.56,2.69-6.8,4.08,2.27-1.35,4.55-2.68,6.86-4,1.15-.65,2.31-1.28,3.47-1.89a22.4,22.4,0,0,1,3.62-1.6,16.26,16.26,0,0,0,3.32-2.21c1-.83,2-1.69,3-2.58,2-1.77,3.89-3.59,5.78-5.45l.35-.35a2.14,2.14,0,0,1,.36-.28c.25-.17.53-.33.82-.49.57-.31,1.17-.58,1.76-.86,1.21-.54,2.42-1.05,3.64-1.55,2.44-1,4.9-2,7.33-3.08.6-.27,1.2-.56,1.8-.88a7.71,7.71,0,0,0,1.74-1.15,11.72,11.72,0,0,0,2.2-3.46,39.4,39.4,0,0,0,1.43-3.74l.62-1.9a14.76,14.76,0,0,1,.63-1.76Z" style="fill:#855c3d"/><path d="M280.47,362a12,12,0,0,1,0,6.73,25.9,25.9,0,0,1-2.58,6.45,22.48,22.48,0,0,0-1.63,3.16c-.49,1.08-.94,2.17-1.4,3.26-.9,2.18-1.78,4.36-2.63,6.56h0l-1.15,6.51,1.33-6.48v0c.92-2.18,1.86-4.33,2.82-6.48.48-1.08,1-2.15,1.48-3.21a20.75,20.75,0,0,1,1.7-3.06,26.54,26.54,0,0,0,2.84-6.56,13,13,0,0,0,.21-7.21Z" style="fill:#855c3d"/><path d="M267,365a7.76,7.76,0,0,0-2.25,1.9c-.62.71-1.2,1.46-1.76,2.22-1.11,1.53-2.13,3.1-3.1,4.72l0,0-6.15,8.07v0l-6.86,6.33,7-6.15h0l6.35-7.92h0c1-1.58,2.05-3.13,3.18-4.6.57-.74,1.15-1.46,1.78-2.13a7,7,0,0,1,2.05-1.68Z" style="fill:#855c3d"/><path d="M290.79,367.35a15.42,15.42,0,0,1,2.34,4.61c.62,1.66,1.08,3.38,1.79,5.06a5.29,5.29,0,0,0,.71,1.23c.35.39.65.63,1,1l1.93,1.85,3.83,3.72h0l6.89,5.38-6.71-5.6v0l-3.71-3.87L297,378.81c-.29-.31-.67-.65-.91-.93a5.27,5.27,0,0,1-.57-1.11c-.63-1.62-1-3.37-1.61-5.07a16.18,16.18,0,0,0-2.33-5Z" style="fill:#855c3d"/><path d="M304.33,368.43a20.22,20.22,0,0,1,2.74,2.38c.88.85,1.73,1.72,2.59,2.61,1.7,1.76,3.39,3.55,5,5.36l0,0h0l6,3.46h0l15.25-.09-15.25-.11h.06l-5.94-3.54,0,0c-1.64-1.83-3.3-3.65-5-5.44-.84-.9-1.7-1.79-2.56-2.66a21.56,21.56,0,0,0-2.8-2.48Z" style="fill:#855c3d"/><path d="M278.88,357.18a13.58,13.58,0,0,1-1.33,4.07c-.63,1.32-1.34,2.61-2.06,3.91s-1.47,2.57-2.12,3.93a13.4,13.4,0,0,1-2.6,3.49c-1,1.09-2,2.14-3,3.28a10.1,10.1,0,0,0-1.32,1.84,2.74,2.74,0,0,0-.33,1.11,8.48,8.48,0,0,1-.22,1.07,71.77,71.77,0,0,1-3.17,8.29,68.66,68.66,0,0,0,3.4-8.22,8.17,8.17,0,0,0,.27-1.11,2.46,2.46,0,0,1,.33-1A10.36,10.36,0,0,1,268,376.1c1-1.09,2.06-2.11,3.11-3.17a13.93,13.93,0,0,0,2.78-3.56c.67-1.3,1.46-2.56,2.22-3.83s1.51-2.57,2.19-3.91a14.25,14.25,0,0,0,1.54-4.32Z" style="fill:#855c3d"/><path d="M282.26,358.71a8.36,8.36,0,0,1,1.33,2c.39.74.75,1.52,1.09,2.3.66,1.57,1.27,3.18,1.81,4.8.29.81.47,1.6.75,2.47a22.28,22.28,0,0,0,1,2.4c.76,1.56,1.61,3.06,2.51,4.54a27.7,27.7,0,0,0,3,4.23c1.13,1.31,2.3,2.56,3.48,3.81q3.56,3.75,7.19,7.4-3.54-3.75-7-7.57c-1.15-1.28-2.29-2.56-3.39-3.88a27.19,27.19,0,0,1-2.85-4.25,33,33,0,0,1-4-9.38c-.51-1.66-1.07-3.29-1.72-4.9-.32-.81-.66-1.6-1.05-2.39A8.64,8.64,0,0,0,283,358Z" style="fill:#855c3d"/><path d="M268.21,358.47c-3.08,1.64-6,3.48-8.93,5.33l-4.37,2.76c-.74.45-1.47.93-2.21,1.3a.84.84,0,0,1-.25.09l-.32.09-.62.19-1.24.4c-1.64.55-3.27,1.15-4.86,1.84a17.71,17.71,0,0,0-4.51,2.58c-2.79,2-5.74,3.83-8.68,5.63,3-1.72,6-3.46,8.83-5.43a16.79,16.79,0,0,1,4.51-2.43c1.59-.65,3.22-1.21,4.86-1.72l2.52-.73c.81-.39,1.54-.84,2.3-1.27l4.44-2.66c3-1.77,5.93-3.54,9-5.07Z" style="fill:#855c3d"/><path d="M272.41,355.91c-2.24.15-4.45.47-6.64.83s-4.38.79-6.55,1.28h0c-2.54.27-5.09.55-7.63.87s-5.1.63-7.63,1.1a24.31,24.31,0,0,0-3.68,1.19l-3.59,1.37-7.17,2.77,7.23-2.61,3.62-1.28a21,21,0,0,1,3.66-1.09c2.51-.42,5.06-.67,7.61-.93s5.1-.48,7.65-.69h0q3.25-.65,6.53-1.12c2.18-.31,4.37-.57,6.56-.67Z" style="fill:#855c3d"/><path d="M276.89,356.81a63.41,63.41,0,0,1-8,3.43c-1.38.64-2.59,1.42-3.86,2.16s-2.48,1.55-3.69,2.37l-7.11,5.11L247.1,375l7.28-4.86,7.25-4.9c1.22-.78,2.47-1.53,3.73-2.25s2.54-1.46,3.82-2a62.91,62.91,0,0,0,8.18-3.24Z" style="fill:#855c3d"/><path d="M239.88,357.32a19.53,19.53,0,0,0-4.32,1.56c-1.38.64-2.72,1.35-4,2.09-2.65,1.49-5.22,3.09-7.75,4.78h0l-6.72,3.06,6.77-2.93h0c2.55-1.62,5.16-3.17,7.82-4.6,1.33-.71,2.68-1.4,4.06-2a19.29,19.29,0,0,1,4.24-1.44Z" style="fill:#855c3d"/><path d="M250.86,359c-1.69,1.14-3.46,2.17-5.25,3.17s-3.6,2-5.45,2.83c-.46.21-.93.43-1.41.6a2.25,2.25,0,0,1-.35.09,2,2,0,0,0-.38,0c-.26,0-.51.11-.76.17-1,.28-2,.59-2.94.91-1.95.64-3.89,1.31-5.82,2,1.94-.64,3.89-1.27,5.86-1.87,1-.3,2-.59,2.95-.85a6.94,6.94,0,0,1,.74-.15,1.46,1.46,0,0,1,.38,0,2.35,2.35,0,0,0,.4-.09c.49-.17,1-.37,1.43-.58,1.88-.84,3.71-1.77,5.53-2.73s3.61-2,5.35-3.08Z" style="fill:#855c3d"/><path d="M284.86,378.63c-.75,3.17-1.55,6.35-2.36,9.51v.05l1.36,8.48-1.13-8.51v0q1.35-4.72,2.62-9.47Z" style="fill:#855c3d"/><path d="M276.59,363a18.09,18.09,0,0,0-1,3.74c-.25,1.24-.47,2.47-.69,3.71s-.42,2.47-.67,3.69a19.06,19.06,0,0,1-1.27,3.46c-1,2.3-2.08,4.57-3,6.91l-2.82,7,3.06-6.87c1-2.32,2.14-4.52,3.2-6.8l.79-1.71a8.56,8.56,0,0,0,.64-1.82c.29-1.24.54-2.47.8-3.69s.52-2.45.8-3.66a18.71,18.71,0,0,1,1.07-3.46Z" style="fill:#855c3d"/><path d="M259.84,373.79a5.74,5.74,0,0,0-.88,2,11,11,0,0,0-.29,2.14,21,21,0,0,0,.24,4.26l0-.09-5.13,9.32,5.37-9.18,0,0v0a21.06,21.06,0,0,1-.12-4.2,7.28,7.28,0,0,1,1.19-3.88Z" style="fill:#855c3d"/><path d="M272,362.69c-.7,1.34-1.32,2.69-1.95,4.05l-1.84,4.09.08-.1a39.9,39.9,0,0,0-3.29,2.94,17.73,17.73,0,0,0-1.46,1.65,3.06,3.06,0,0,0-.83,2,3,3,0,0,1,.93-1.9,16,16,0,0,1,1.53-1.55,37.08,37.08,0,0,1,3.42-2.72l0,0,0-.06,2.07-4c.69-1.32,1.39-2.64,2.14-3.9Z" style="fill:#855c3d"/><path d="M290.88,362.61a18,18,0,0,1,3,3.11c.91,1.15,1.85,2.32,2.88,3.4a17.72,17.72,0,0,0,3.47,2.88c1.24.79,2.43,1.64,3.6,2.54s2.31,1.85,3.53,2.71c.61.42,1.25.82,1.9,1.18a17.54,17.54,0,0,1,1.84,1.2,74.79,74.79,0,0,1,6.68,5.8,75.72,75.72,0,0,0-6.53-6,17.66,17.66,0,0,0-1.83-1.28,16.69,16.69,0,0,1-1.84-1.21c-1.18-.87-2.29-1.86-3.44-2.79s-2.34-1.83-3.57-2.66a17.12,17.12,0,0,1-3.25-2.88c-1-1.08-1.87-2.25-2.76-3.43a18.2,18.2,0,0,0-3.06-3.35Z" style="fill:#855c3d"/><path d="M295.87,361.34c3.49,1.06,6.42,3.43,9.59,5.41a16.3,16.3,0,0,0,2.52,1.32,6,6,0,0,0,2.87.45,9.71,9.71,0,0,1,5,1.88A23.08,23.08,0,0,1,320,374c1.29,1.39,2.67,2.61,4,3.9l8.22,7.56-8-7.74c-1.32-1.31-2.7-2.6-3.91-4a23,23,0,0,0-4.21-3.74,10,10,0,0,0-5.28-2.09c-1.8.17-3.43-.81-5-1.78-3.07-2-6-4.5-9.67-5.73Z" style="fill:#855c3d"/><path d="M298.33,361.66c2.43.36,4.85.86,7.26,1.34l7.23,1.53,3.61.8c1.23.23,2.44.4,3.66.6l7.3,1.17-7.28-1.29c-1.21-.22-2.44-.42-3.63-.66l-3.6-.86-7.21-1.66c-2.41-.52-4.82-1.06-7.27-1.46Z" style="fill:#855c3d"/><path d="M285,355.85a26.66,26.66,0,0,0,4.13,1.21c1.39.3,2.79.57,4.2.8s2.81.44,4.23.62,2.82.36,4.24.44c-1.42-.12-2.83-.35-4.23-.56s-2.8-.48-4.2-.75-2.78-.57-4.15-.92a25.15,25.15,0,0,1-4-1.3Z" style="fill:#855c3d"/><path d="M271.15,354.22c-1.18-.33-2.37-.55-3.55-.79l-3.55-.65q-3.56-.61-7.13-1.18,3.54.75,7.05,1.55l3.51.84c1.16.28,2.34.57,3.45.95Z" style="fill:#855c3d"/><path d="M278.2,352.74c-1.3,1.4-2.52,2.85-3.71,4.32a42.24,42.24,0,0,0-3.35,4.6l-6.23,9.42,0,0v0l-2.77,11.54,3.1-11.45,0,0L271.7,362a43.07,43.07,0,0,1,3.43-4.44c1.23-1.42,2.48-2.83,3.79-4.16Z" style="fill:#855c3d"/><path d="M278.93,352.36a59.59,59.59,0,0,1,4.28,10.14,7.41,7.41,0,0,1,.33,2.6c-.17.87-.33,1.83-.46,2.73-.28,1.83-.52,3.67-.82,5.49a21.92,21.92,0,0,1-.57,2.7,3,3,0,0,1-.23.61,7.07,7.07,0,0,0-.26.67c-.16.44-.31.89-.45,1.33-.56,1.76-1.07,3.55-1.58,5.32q-1.53,5.35-2.95,10.72c1-3.56,2.09-7.1,3.19-10.65.54-1.76,1.09-3.53,1.7-5.28.14-.44.3-.87.46-1.29.09-.22.17-.43.27-.63a4.37,4.37,0,0,0,.27-.68,23.49,23.49,0,0,0,.64-2.73c.35-1.82.62-3.66.94-5.48.16-.92.33-1.79.54-2.73a8.27,8.27,0,0,0-.29-2.88,59.35,59.35,0,0,0-4.12-10.41Z" style="fill:#855c3d"/><path d="M281.08,377.54q-1.54,1.88-3,3.79c-.49.64-1,1.29-1.45,1.95a4.63,4.63,0,0,0-.61,1.09l-.41,1.14-3.15,9.16,3.39-9.07.43-1.13a4.39,4.39,0,0,1,.61-1c.47-.64,1-1.27,1.49-1.9,1-1.24,2.06-2.48,3.11-3.7Z" style="fill:#855c3d"/><path d="M307.54,132.55c2.1.77.24,17.26-4.75,17.63s-5.71-6.77-3.57-11.76S303.28,130.94,307.54,132.55Z" style="fill:#fdb171"/><polygon points="329.08 61.49 336.43 28.43 328.11 61.26 329.08 61.49" style="fill:#855c3d"/></svg>