<svg xmlns="http://www.w3.org/2000/svg" xmlns:xlink="http://www.w3.org/1999/xlink" viewBox="0 0 400 400"><defs><linearGradient id="a" y1="198.54" x2="377.96" y2="198.54" gradientUnits="userSpaceOnUse"><stop offset="0" stop-color="#39cbff"/><stop offset="1" stop-color="#f2cbe0"/></linearGradient><linearGradient id="b" x1="2.91" y1="275.38" x2="284.88" y2="275.38" gradientUnits="userSpaceOnUse"><stop offset="0" stop-color="#17abfe"/><stop offset="1" stop-color="#ca88f6"/></linearGradient><linearGradient id="c" x1="27.5" y1="164.96" x2="387.16" y2="164.96" gradientUnits="userSpaceOnUse"><stop offset="0" stop-color="#ffdf7d"/><stop offset="1" stop-color="#feb422"/></linearGradient><linearGradient id="d" x1="67.44" y1="177.58" x2="130.75" y2="177.58" gradientTransform="translate(249.16 40.34) rotate(76.72)" gradientUnits="userSpaceOnUse"><stop offset="0" stop-color="#009aa2"/><stop offset="1" stop-color="#17d0b4"/></linearGradient><linearGradient id="e" x1="244.06" y1="340.66" x2="307.37" y2="340.66" gradientUnits="userSpaceOnUse"><stop offset="0" stop-color="#ea456b"/><stop offset="1" stop-color="#aa64b9"/></linearGradient><linearGradient id="f" x1="27.5" y1="157.38" x2="364.44" y2="157.38" gradientUnits="userSpaceOnUse"><stop offset="0" stop-color="#feb422"/><stop offset="1" stop-color="#ffdf7d"/></linearGradient><linearGradient id="g" x1="130.7" y1="35.24" x2="253.34" y2="169.87" gradientUnits="userSpaceOnUse"><stop offset="0" stop-color="#17abfe"/><stop offset="1" stop-color="#f2cbe0"/></linearGradient></defs><title>VE-Volunteer-Icon</title><path d="M260,374.35c-10.37,10.37-30.44,15.74-44.6,11.95L72.23,347.94c-14.16-3.8-28.86-18.49-32.65-32.65L1.22,172.13c-3.8-14.16,1.58-34.24,12-44.61L118,22.73c10.37-10.37,30.44-15.75,44.6-12L305.73,49.13c14.16,3.8,28.86,18.49,32.65,32.66l38.36,143.15c3.8,14.17-1.58,34.24-11.95,44.61Z" style="fill:url(#a)"/><path d="M245.48,304.45c.18-2.09.29-4.19.29-6.32a74.07,74.07,0,0,0-74.07-74.07,75.06,75.06,0,0,0-12.62,1.09A108.51,108.51,0,0,0,2.91,176.4l38,141.81c3.8,14.17,18.49,28.86,32.65,32.66l143.16,38.36c14.17,3.79,34.24-1.59,44.61-12l23.55-23.55A60.73,60.73,0,0,0,245.48,304.45Z" style="fill:url(#b)"/><path d="M260.33,338.77a39.56,39.56,0,0,1-5.45-.73l.53-2.61a39.28,39.28,0,0,0,5.09.68Zm5.52,0-.22-2.66a35.44,35.44,0,0,0,4.49-.65l.58-.13.61,2.59-.63.14A37.24,37.24,0,0,1,265.85,338.74Zm-16.26-2.11a51,51,0,0,1-5.09-2l1.1-2.43a49.08,49.08,0,0,0,4.82,1.9Zm27-.39-1-2.48a35.5,35.5,0,0,0,4.61-2.23l1.33,2.31A38.31,38.31,0,0,1,276.57,336.24Zm-36.92-4.08c-1.53-.87-3.09-1.84-4.62-2.87l1.5-2.21c1.47,1,3,1.93,4.43,2.76Zm46.46-1.37-1.62-2.12a43.41,43.41,0,0,0,3.91-3.37l1.86,1.91A47.2,47.2,0,0,1,286.11,330.79Zm-55.46-4.7c-1.38-1.09-2.78-2.26-4.15-3.47l1.77-2c1.33,1.18,2.69,2.32,4,3.37ZM294,323.22l-2-1.72c1.09-1.29,2.15-2.68,3.17-4.13l2.19,1.53C296.23,320.42,295.12,321.87,294,323.22Zm-71.42-4.3c-1.24-1.24-2.5-2.55-3.74-3.89l2-1.81c1.2,1.32,2.43,2.6,3.65,3.8Zm77.68-4.59-2.3-1.36c.87-1.46,1.72-3,2.52-4.59l2.38,1.2C302,311.21,301.14,312.81,300.24,314.33Zm-85-3.36c-1.13-1.35-2.26-2.76-3.37-4.2l2.11-1.63c1.09,1.41,2.2,2.8,3.31,4.12Zm89.86-6.3-2.45-1.05c.68-1.58,1.34-3.22,2-4.89l2.5.93C306.5,301.37,305.83,303.06,305.13,304.67Zm-96.44-2.22c-1-1.45-2.05-2.94-3.05-4.43l2.23-1.48c1,1.47,2,2.94,3,4.36Zm100.2-7.89-2.54-.81c.52-1.64,1-3.34,1.48-5.06l2.58.69C309.93,291.14,309.42,292.88,308.89,294.56Zm-106.14-1.07q-1.4-2.26-2.75-4.62l2.31-1.33c.89,1.55,1.79,3.06,2.71,4.55Zm-5.37-9.31c-.84-1.56-1.66-3.15-2.48-4.76l2.38-1.2c.81,1.59,1.62,3.16,2.45,4.69Zm114.33,0-2.6-.59c.38-1.69.75-3.43,1.08-5.18l2.62.5C312.47,280.67,312.1,282.44,311.71,284.16Zm-119.16-9.57q-1.14-2.4-2.23-4.88l2.44-1.08c.72,1.63,1.46,3.24,2.2,4.83Zm121.17-1-2.63-.41c.27-1.72.51-3.46.73-5.24l2.64.33C314.24,270.07,314,271.84,313.72,273.59Zm-125.5-8.82q-1-2.46-2-5l2.49-1c.64,1.66,1.3,3.31,2,4.93ZM315,262.93l-2.66-.25c.17-1.74.3-3.5.42-5.28l2.66.18C315.34,259.38,315.2,261.17,315,262.93Zm-130.67-8.17c-.61-1.67-1.19-3.36-1.76-5.06l2.53-.85q.84,2.53,1.73,5Zm131.36-2.55-2.67-.1c.07-1.75.11-3.51.13-5.29l2.67,0C315.84,248.65,315.79,250.44,315.73,252.21ZM181,244.59q-.79-2.55-1.54-5.14l2.57-.73q.74,2.57,1.51,5.08Zm132.21-3.07c0-1.75-.07-3.52-.14-5.3l2.67-.1c.07,1.8.11,3.59.14,5.36ZM178,234.28c-.45-1.71-.89-3.45-1.31-5.19l2.59-.63c.42,1.73.85,3.44,1.3,5.15Zm134.77-3.36c-.11-1.75-.23-3.52-.38-5.29l2.65-.22c.15,1.79.28,3.58.39,5.35Zm-137.29-7-.26-1.23,2.6-.56.27,1.21Zm136.4-3.52c-.19-1.75-.39-3.51-.62-5.27l2.65-.34c.22,1.78.43,3.56.62,5.33Zm-1.35-10.53c-.26-1.73-.55-3.48-.85-5.23l2.63-.46c.3,1.77.59,3.54.85,5.3Zm-1.8-10.45c-.34-1.73-.69-3.47-1.06-5.2l2.6-.56q.57,2.63,1.07,5.25Z" style="fill:#fff"/><path d="M200.3,220.48a28,28,0,0,0-52.94-5.2,19.37,19.37,0,0,0-3.26-.3A19.1,19.1,0,0,0,125,234.09c0,.55,0,1.1.08,1.64a15.65,15.65,0,0,0,5.35,30.35h59.34c.39,0,.78,0,1.16-.06s.77.06,1.16.06a23.54,23.54,0,0,0,8.21-45.6Z" style="fill:#fff"/><path d="M37.34,304.87q7.71.36,15.43.37a335.77,335.77,0,0,0,52.11-4.08,332,332,0,0,0,171.57-81.73A333.86,333.86,0,0,0,368.88,79.07l18.28,5.62-10.75-30-10.75-30L339.91,43.47,314.16,62.24l20.3,6.24a298,298,0,0,1-82.14,124.24,296.21,296.21,0,0,1-153,72.89,299.06,299.06,0,0,1-71.8,2.55Z" style="fill:url(#c)"/><path d="M63.68,261.86H61c0-1.8,0-3.61.11-5.39l2.66.11C63.71,258.32,63.68,260.1,63.68,261.86Zm.41-10.55-2.66-.21c.15-1.79.32-3.6.54-5.36l2.64.32C64.41,247.79,64.23,249.55,64.09,251.31Zm1.26-10.48-2.63-.43c.28-1.77.61-3.55,1-5.3l2.61.54C66,237.35,65.63,239.09,65.35,240.83Zm2.13-10.33-2.59-.65c.44-1.74.92-3.49,1.43-5.2l2.55.76C68.37,227.08,67.9,228.79,67.48,230.5Zm3-10.1L68,219.52c.59-1.71,1.24-3.4,1.9-5.05l2.47,1C71.71,217.08,71.09,218.74,70.5,220.4Zm4-9.75-2.42-1.13c.76-1.64,1.58-3.26,2.41-4.83l2.35,1.25C76,207.47,75.21,209.05,74.47,210.65Zm4.94-9.28L77.14,200c.94-1.56,1.93-3.08,2.94-4.54L82.27,197C81.29,198.38,80.33,199.86,79.41,201.37Zm6-8.61-2.09-1.66c1.14-1.43,2.32-2.82,3.52-4.13l2,1.8C87.64,190,86.5,191.38,85.4,192.76ZM165.81,191l-.36-.42,2-1.73.37.43Zm-3.91-4.27c-1.24-1.25-2.53-2.45-3.82-3.56l1.74-2q2,1.74,4,3.71Zm-69.44-1.66-1.82-2c1.34-1.25,2.72-2.45,4.11-3.56l1.66,2.09C95.08,182.69,93.75,183.84,92.46,185.05ZM154,179.92c-1.43-1-2.89-2-4.36-2.84l1.34-2.3c1.55.9,3.08,1.91,4.57,3Zm-53.36-1.34-1.47-2.23c1.54-1,3.12-1.95,4.7-2.78l1.24,2.36A51.4,51.4,0,0,0,100.63,178.58ZM145,174.69a49.16,49.16,0,0,0-4.82-1.9l.83-2.53a51.3,51.3,0,0,1,5.1,2Zm-35.21-.93-1-2.48a52.69,52.69,0,0,1,5.19-1.74l.71,2.57A46.41,46.41,0,0,0,109.81,173.76Zm25.39-2.31a44.49,44.49,0,0,0-5.12-.75l.23-2.65a47.67,47.67,0,0,1,5.43.79ZM119.77,171l-.4-2.64a47.57,47.57,0,0,1,5.45-.5l.09,2.67A42.32,42.32,0,0,0,119.77,171Z" style="fill:#fff"/><circle cx="99.1" cy="177.58" r="31.66" transform="translate(-96.5 233.23) rotate(-76.72)" style="fill:url(#d)"/><path d="M307.37,340.66A31.66,31.66,0,1,1,275.71,309,31.65,31.65,0,0,1,307.37,340.66Z" style="fill:url(#e)"/><path d="M33.13,289.18c157-.05,285.15-87.53,331.31-263.6L339.91,43.47,314.16,62.24l20.3,6.24a298,298,0,0,1-82.14,124.24,296.21,296.21,0,0,1-153,72.89,299.06,299.06,0,0,1-71.8,2.55Z" style="fill:url(#f)"/><path d="M273.88,211.32a27.17,27.17,0,0,1-.19-3,25.29,25.29,0,0,1,32.19-24.38,37.19,37.19,0,0,1,74,5.09c0,.09,0,.16,0,.25a22.69,22.69,0,0,1-2.59,45.23H275.23v0c-.33,0-.65,0-1,0a11.59,11.59,0,0,1-.36-23.18Z" style="fill:#f3f3f3"/><path d="M143.25,111.34a24.78,24.78,0,0,1-.19-3A25.33,25.33,0,0,1,168.4,83a25,25,0,0,1,6.85,1,37.18,37.18,0,0,1,74,5.09v.24a22.7,22.7,0,0,1-2.6,45.24H144.6l0-.05c-.33,0-.65.05-1,.05a11.6,11.6,0,0,1-.35-23.19Z" style="fill:url(#g)"/><path d="M38.45,304H39c0-.25,0-.49,0-.74a25.62,25.62,0,0,1,51-3.74h0a11.46,11.46,0,0,1,10.9,15.06h1a7.82,7.82,0,0,1,0,15.63H38.45a13.11,13.11,0,0,1,0-26.21Z" style="fill:#fff"/><circle cx="84.47" cy="166.21" r="3.25" style="fill:#fff"/><path d="M82.85,182.46H79.6v-8.13a3.25,3.25,0,0,1,3.25-3.25H92.6v3.25H82.85Z" style="fill:#fff"/><polygon points="89.35 192.21 86.1 192.21 86.1 182.46 84.47 182.46 84.47 192.21 81.22 192.21 81.22 179.21 89.35 179.21 89.35 192.21" style="fill:#fff"/><rect x="81.22" y="172.71" width="8.13" height="9.75" style="fill:#fff"/><circle cx="113.72" cy="166.21" r="3.25" style="fill:#fff"/><path d="M118.6,182.46h-3.25v-8.13H105.6v-3.25h9.75a3.26,3.26,0,0,1,3.25,3.25Z" style="fill:#fff"/><polygon points="116.97 192.21 113.72 192.21 113.72 182.46 112.1 182.46 112.1 192.21 108.85 192.21 108.85 179.21 116.97 179.21 116.97 192.21" style="fill:#fff"/><rect x="108.85" y="172.71" width="8.13" height="9.75" style="fill:#fff"/><circle cx="99.1" cy="166.21" r="3.25" style="fill:#fff"/><rect x="95.85" y="172.71" width="6.5" height="19.5" style="fill:#fff"/><path d="M104,180.83h-3.25v-6.5H97.47v6.5H94.22v-6.5a3.26,3.26,0,0,1,3.25-3.25h3.25a3.26,3.26,0,0,1,3.25,3.25Z" style="fill:#fff"/><path d="M289.47,329.12a8.33,8.33,0,0,0-11.79,0l-2,2-2-2A8.33,8.33,0,0,0,262,340.9l2,2h0l11.79,11.78,11.78-11.78h0l2-2A8.34,8.34,0,0,0,289.47,329.12Z" style="fill:#fff"/></svg>