<svg xmlns="http://www.w3.org/2000/svg" xmlns:xlink="http://www.w3.org/1999/xlink" viewBox="0 0 400 400"><defs><linearGradient id="a" y1="200" x2="400" y2="200" gradientUnits="userSpaceOnUse"><stop offset="0" stop-color="#88eebe"/><stop offset="1" stop-color="#17abfe"/></linearGradient><linearGradient id="b" x1="183.55" y1="295.14" x2="410.2" y2="208.05" gradientUnits="userSpaceOnUse"><stop offset="0" stop-color="#007acd"/><stop offset="1" stop-color="#39cbff"/></linearGradient><linearGradient id="c" x1="125.12" y1="198.57" x2="271.22" y2="198.57" gradientUnits="userSpaceOnUse"><stop offset="0" stop-color="#f3f3f3"/><stop offset="1" stop-color="#d9e1e4"/></linearGradient><clipPath id="d"><circle cx="198.17" cy="198.57" r="85.69" style="fill:none"/></clipPath><linearGradient id="e" x1="197.27" y1="287.51" x2="191.66" y2="226.63" gradientUnits="userSpaceOnUse"><stop offset="0" stop-color="#f3f3f3"/><stop offset="1" stop-color="#39cbff"/></linearGradient><linearGradient id="f" x1="182.26" y1="231.89" x2="209.23" y2="231.89" gradientUnits="userSpaceOnUse"><stop offset="0" stop-color="#ffdf7d"/><stop offset="1" stop-color="#feb422"/></linearGradient><linearGradient id="g" x1="181.84" y1="257.72" x2="195.89" y2="235.24" xlink:href="#e"/><linearGradient id="h" x1="210.83" y1="254.66" x2="192.57" y2="233.11" xlink:href="#e"/><linearGradient id="i" x1="221.93" y1="197.66" x2="234.9" y2="197.66" xlink:href="#f"/><linearGradient id="j" x1="164.52" y1="191.8" x2="227.6" y2="191.8" xlink:href="#f"/><linearGradient id="k" x1="156.29" y1="182.08" x2="237.84" y2="182.08" xlink:href="#b"/><linearGradient id="l" x1="156.29" y1="197.66" x2="164.52" y2="197.66" xlink:href="#f"/></defs><title>VE-Connect-Icon</title><path d="M136,383.93c-23.18,0-51.62-16.43-63.21-36.5L8.69,236.5c-11.59-20.08-11.59-52.92,0-73L72.74,52.57c11.59-20.07,40-36.5,63.21-36.5h128.1c23.18,0,51.62,16.43,63.21,36.5L391.31,163.5c11.59,20.08,11.59,52.92,0,73L327.26,347.43c-11.59,20.07-40,36.5-63.21,36.5Z" style="fill:url(#a)"/><path d="M261.63,141.15,140.45,262.33l121.6,121.6h2c23.18,0,51.62-16.43,63.21-36.5l51.48-89.17Z" style="fill:url(#b)"/><path d="M322.15,178.93l-1.65-.08.12-2.8,1.66.07Zm-7.27-.33-5.61-.26.13-2.8,5.61.25Zm-11.22-.51-5.62-.25.13-2.81,5.61.25Zm-11.23-.51-5.61-.25.12-2.81,5.62.26Zm-11.23-.5-5.61-.26.13-2.8,5.61.25ZM270,176.57l-5.62-.26.13-2.8,5.61.25Zm-11.23-.51-5.61-.25.12-2.81,5.62.25Zm-11.23-.51-5.61-.25.13-2.81,5.61.26Zm-11.22-.5-5.62-.26.13-2.8,5.61.25Zm-11.23-.51-5.62-.26.13-2.8,5.62.25ZM213.84,174l-5.61-.25.12-2.81,5.62.25Zm-11.23-.51-5.61-.25.13-2.81,5.61.26Zm-11.22-.5-5.62-.26.13-2.8,5.61.25Zm-11.23-.51-5.61-.25.13-2.81,5.61.25ZM168.93,172l-5.61-.25.13-2.81,5.61.25Zm-11.22-.51-5.62-.25.13-2.81,5.61.26Zm-11.23-.5-5.61-.26.12-2.8,5.62.25Zm-11.23-.51-5.61-.25.13-2.81,5.61.25ZM124,170l-5.62-.25.13-2.81,5.61.25Zm-11.23-.51-5.61-.25.12-2.81,5.62.26Zm-11.23-.5L96,168.7l.13-2.8,5.61.25Zm-11.22-.51-5.62-.25.13-2.81,5.61.25Zm-11.23-.51-5.62-.25.13-2.81,5.61.26Z" style="fill:#fcfcfd"/><path d="M83.17,286.46l-2.35-1.53,3.07-4.71,2.35,1.53ZM89.31,277,87,275.51,90,270.8l2.35,1.53Zm6.13-9.41-2.35-1.54,3.06-4.71,2.36,1.54Zm6.13-9.42-2.35-1.54,3.07-4.7,2.35,1.53Zm6.14-9.42-2.36-1.53,3.07-4.71,2.35,1.53Zm6.13-9.42-2.35-1.53,3.06-4.71,2.36,1.54ZM120,230l-2.36-1.54,3.07-4.71,2.35,1.54Zm6.13-9.42L123.75,219l3.07-4.71,2.36,1.53Zm6.13-9.42-2.35-1.53,3.06-4.71,2.36,1.53Zm6.14-9.41L136,200.17l3.07-4.71,2.35,1.54Zm6.13-9.42-2.36-1.54,3.07-4.7,2.36,1.53Zm6.13-9.42-2.35-1.53,3.07-4.71,2.35,1.53Zm6.14-9.42-2.36-1.53,3.07-4.71,2.35,1.54Zm6.13-9.41-2.35-1.54,3.06-4.71,2.36,1.54Zm6.13-9.42-2.35-1.53,3.07-4.71,2.35,1.53Zm6.14-9.42-2.36-1.53,3.07-4.71,2.35,1.53Zm6.13-9.41L179,134.25l3.06-4.71,2.36,1.54Zm6.13-9.42-2.35-1.54,3.07-4.7,2.35,1.53Zm6.14-9.42-2.36-1.53,3.07-4.71,2.35,1.53Zm6.13-9.42L197.36,106l3.06-4.71,2.36,1.54Zm6.13-9.41-2.35-1.54,3.07-4.7,2.35,1.53ZM212,88.7l-2.36-1.53,3.07-4.71L215,84Zm6.13-9.42-2.35-1.53L218.82,73l2.36,1.54Z" style="fill:#fcfcfd"/><path d="M81.13,291.2l-1.08-2.59,5.18-2.17,1.09,2.6Zm10.37-4.33-1.08-2.59,5.18-2.17,1.09,2.59Zm10.37-4.34-1.08-2.59,5.18-2.16,1.09,2.59Zm10.37-4.33-1.08-2.59,5.18-2.17,1.09,2.59Zm10.37-4.33-1.08-2.6,5.18-2.16,1.09,2.59ZM133,269.53l-1.09-2.59,5.19-2.17,1.08,2.6Zm10.37-4.33-1.09-2.59,5.19-2.17,1.08,2.59Zm10.37-4.34-1.09-2.59,5.19-2.17,1.08,2.6Zm10.37-4.33L163,253.94l5.19-2.17,1.08,2.59Zm10.36-4.33-1.08-2.6,5.19-2.16,1.08,2.59Zm10.37-4.34-1.08-2.59,5.18-2.17,1.09,2.59Zm10.37-4.33-1.08-2.59,5.18-2.17,1.09,2.59Zm10.37-4.34-1.08-2.59,5.18-2.17,1.09,2.6Zm10.37-4.33-1.08-2.59L220,230.1l1.09,2.59Zm10.37-4.33-1.08-2.6,5.18-2.16,1.08,2.59Zm10.37-4.34-1.08-2.59,5.18-2.17,1.08,2.59ZM247,221.86l-1.08-2.6,5.18-2.16,1.08,2.59Zm10.37-4.34-1.09-2.59,5.19-2.17,1.08,2.6Zm10.37-4.33-1.09-2.59,5.19-2.17L273,211Zm10.36-4.34-1.08-2.59,5.19-2.17,1.08,2.6Zm10.37-4.33-1.08-2.59,5.19-2.17,1.08,2.59Zm10.37-4.33-1.08-2.6,5.18-2.16,1.09,2.59Zm10.37-4.34-1.08-2.59,5.18-2.17,1.09,2.6Zm10.37-4.33-1.08-2.59,5.18-2.17,1.09,2.59ZM330,187.18l-1.08-2.59,5.18-2.17,1.08,2.6Zm10.37-4.33-1.08-2.59,5.18-2.17,1.08,2.59Z" style="fill:#fcfcfd"/><path d="M309,308.58l-2.69-.81,1.62-5.38,2.69.81Zm3.24-10.76L309.5,297l1.62-5.38,2.69.81Zm3.24-10.76-2.69-.81,1.62-5.38,2.7.81Zm3.25-10.76-2.69-.81,1.62-5.38,2.69.8Zm3.24-10.76-2.69-.82,1.62-5.38,2.69.82Zm3.24-10.77-2.69-.8,1.62-5.39,2.69.81ZM328.4,244l-2.69-.81,1.62-5.38,2.69.81Zm3.24-10.76-2.68-.81,1.62-5.38,2.69.81Zm3.25-10.76-2.69-.81,1.62-5.38,2.69.81Zm3.24-10.76-2.69-.81,1.62-5.38,2.69.81ZM341.37,201l-2.69-.81,1-3.38,2.69.82Z" style="fill:#fcfcfd"/><circle cx="198.17" cy="198.57" r="85.69" style="fill:#fff"/><circle cx="198.17" cy="198.57" r="73.05" style="fill:url(#c)"/><g style="clip-path:url(#d)"><path d="M144.78,292.52V256.77c0-7.84,7.19-14.2,16.06-14.2h70.44c8.87,0,16.06,6.36,16.06,14.2v35.75Z" style="fill:url(#e)"/><polygon points="209.23 242.72 195.74 250.5 182.26 242.72 182.26 213.27 195.74 213.27 209.23 213.27 209.23 242.72" style="fill:url(#f)"/><polygon points="179.94 261.76 195.69 251.36 181.19 242.98 179.94 261.76" style="fill:url(#g)"/><polygon points="211.99 259.89 196.24 250.89 210.74 241.11 211.99 259.89" style="fill:url(#h)"/><rect x="221.93" y="185.72" width="12.97" height="23.87" rx="6.23" ry="6.23" style="fill:url(#i)"/><path d="M227.6,204.41A31.54,31.54,0,0,1,196.06,236h0a31.54,31.54,0,0,1-31.54-31.54V179.19a31.54,31.54,0,0,1,31.54-31.54h0a31.54,31.54,0,0,1,31.54,31.54Z" style="fill:url(#j)"/><path d="M184.8,145.94a14.59,14.59,0,0,0-12.2,6.6h-5a11.3,11.3,0,0,0-11.3,11.3v54.37h8V180.42a8,8,0,0,1,8-8h51.06a14.58,14.58,0,0,0,14.58-14.58V145.94Z" style="fill:url(#k)"/><path d="M164.52,185.79c-3.13.32-8.23,2.94-8.23,6.16v11.41c0,3.22,5.1,5.84,8.23,6.17Z" style="fill:url(#l)"/><path d="M196.19,222.89a10.1,10.1,0,0,1-8.62-5.4l3.65-2.1a5.4,5.4,0,0,0,9.94,0l3.65,2.1A10.1,10.1,0,0,1,196.19,222.89Z" style="fill:#477ca8"/><path d="M178.29,206.09a15.17,15.17,0,0,1-15.15-15.16v-7.16h30.31v7.16A15.18,15.18,0,0,1,178.29,206.09ZM167.35,188v3a10.95,10.95,0,1,0,21.89,0v-3Z" style="fill:#477ca8"/><path d="M214.52,206.09a15.18,15.18,0,0,1-15.16-15.16v-7.16h30.32v7.16A15.18,15.18,0,0,1,214.52,206.09ZM203.58,188v3a10.94,10.94,0,1,0,21.88,0v-3Z" style="fill:#477ca8"/><rect x="177.84" y="190.83" width="4.82" height="4.21" style="fill:#477ca8"/><rect x="209.61" y="190.83" width="4.6" height="4.21" style="fill:#477ca8"/><rect x="191.32" y="183.77" width="11.93" height="4.21" style="fill:#477ca8"/><rect x="192.6" y="258.79" width="4.21" height="32.93" style="fill:#fff"/></g><path d="M225.21,73A11.59,11.59,0,1,1,236.8,61.41,11.6,11.6,0,0,1,225.21,73Zm0-19a7.38,7.38,0,1,0,7.37,7.37A7.38,7.38,0,0,0,225.21,54Z" style="fill:#fcfcfd"/><path d="M58.05,179A17.52,17.52,0,1,1,75.56,161.5,17.53,17.53,0,0,1,58.05,179Zm0-30.81a13.3,13.3,0,1,0,13.3,13.3A13.32,13.32,0,0,0,58.05,148.2Z" style="fill:#fcfcfd"/><path d="M66.47,161.5a8.43,8.43,0,1,1-8.42-8.43A8.43,8.43,0,0,1,66.47,161.5Z" style="fill:#fff"/><path d="M304,341.14a17.52,17.52,0,1,1,17.51-17.52A17.54,17.54,0,0,1,304,341.14Zm0-30.82a13.3,13.3,0,1,0,13.3,13.3A13.32,13.32,0,0,0,304,310.32Z" style="fill:#fcfcfd"/><circle cx="303.96" cy="323.62" r="8.43" style="fill:#88eebe"/><circle cx="81.17" cy="286.65" r="23.05" transform="translate(-178.92 141.35) rotate(-45)" style="fill:#fff"/><path d="M81.17,265.71a20.94,20.94,0,1,1-20.94,20.94,21,21,0,0,1,20.94-20.94Zm0-4.21a25.16,25.16,0,1,0,25.15,25.15A25.16,25.16,0,0,0,81.17,261.5Z" style="fill:#fcfcfd"/><path d="M72.33,283.71a8.84,8.84,0,1,0,8.84-8.84A8.84,8.84,0,0,0,72.33,283.71Z" style="fill:#39cbff"/><path d="M81.17,294.65a10.94,10.94,0,1,1,10.94-10.94A11,11,0,0,1,81.17,294.65Zm0-17.67a6.73,6.73,0,1,0,6.73,6.73A6.74,6.74,0,0,0,81.17,277Z" style="fill:#fcfcfd"/><path d="M74.54,293.53H87.79a8.83,8.83,0,0,1,8.84,8.83v.72a22.49,22.49,0,0,1-30.93,0v-.72A8.83,8.83,0,0,1,74.54,293.53Z" style="fill:#39cbff"/><path d="M81.17,311.34a24.56,24.56,0,0,1-16.91-6.73L63.6,304v-1.63a11,11,0,0,1,10.94-10.94H87.79a11,11,0,0,1,10.95,10.94V304l-.66.62A24.58,24.58,0,0,1,81.17,311.34Zm-13.36-9.19a20.4,20.4,0,0,0,26.71,0,6.74,6.74,0,0,0-6.73-6.52H74.54A6.75,6.75,0,0,0,67.81,302.15Z" style="fill:#fcfcfd"/><circle cx="344.3" cy="177.67" r="23.05" transform="translate(92.76 472.36) rotate(-76.81)" style="fill:#fff"/><path d="M344.3,156.73a20.94,20.94,0,1,1-20.94,20.94,21,21,0,0,1,20.94-20.94Zm0-4.21a25.16,25.16,0,1,0,25.15,25.15,25.16,25.16,0,0,0-25.15-25.15Z" style="fill:#fcfcfd"/><path d="M335.46,174.73a8.84,8.84,0,1,0,8.84-8.84A8.83,8.83,0,0,0,335.46,174.73Z" style="fill:#88eebe"/><path d="M344.3,185.67a10.94,10.94,0,1,1,10.94-10.94A11,11,0,0,1,344.3,185.67Zm0-17.67a6.73,6.73,0,1,0,6.73,6.73A6.74,6.74,0,0,0,344.3,168Z" style="fill:#fcfcfd"/><path d="M337.67,184.55h13.25a8.83,8.83,0,0,1,8.84,8.83v.72a22.48,22.48,0,0,1-30.92,0v-.72A8.83,8.83,0,0,1,337.67,184.55Z" style="fill:#88eebe"/><path d="M344.3,202.36a24.56,24.56,0,0,1-16.91-6.73l-.66-.62v-1.63a11,11,0,0,1,10.94-10.94h13.25a11,11,0,0,1,10.95,10.94V195l-.66.62A24.58,24.58,0,0,1,344.3,202.36ZM331,193.17a20.38,20.38,0,0,0,26.7,0,6.74,6.74,0,0,0-6.73-6.52H337.67A6.73,6.73,0,0,0,331,193.17Z" style="fill:#fcfcfd"/><path d="M70.05,153.78l-1.39-2.44,4.87-2.79,1.4,2.44Zm9.75-5.58-1.39-2.44L83.28,143l1.4,2.43Zm9.76-5.59-1.4-2.44L93,137.38l1.39,2.44ZM99.31,137l-1.4-2.44,4.88-2.79,1.4,2.43Zm9.75-5.59L107.67,129l4.87-2.79,1.4,2.44Zm9.76-5.58-1.4-2.44,4.88-2.79,1.39,2.44Zm9.75-5.59-1.4-2.44,4.88-2.79,1.39,2.44Zm9.75-5.58-1.4-2.44,4.88-2.79,1.4,2.44Zm9.75-5.59-1.39-2.43,4.87-2.8,1.4,2.44Zm9.76-5.58-1.4-2.44,4.88-2.79,1.39,2.44Zm9.75-5.58-1.4-2.44,4.88-2.79,1.4,2.43Zm9.75-5.59-1.4-2.44,4.88-2.79,1.4,2.44Zm9.76-5.58-1.4-2.44,4.87-2.79L192,84Zm9.75-5.59-1.4-2.44L200.32,76l1.39,2.44Zm9.75-5.58-1.4-2.44,4.88-2.79,1.4,2.44ZM216.34,70,215,67.58l3.93-2.25,1.39,2.43Z" style="fill:#fcfcfd"/><path d="M325.43,163.25l-3.94-4,2-2,3.94,4Zm-7.88-8-3.94-4,2-2,3.94,4Zm-7.88-8-3.94-4,2-2,3.94,4Zm-7.87-8-3.94-4,2-2,3.94,4Zm-7.88-8-3.94-4,2-2,3.94,4Zm-7.88-8-3.94-4,2-2,3.94,4Zm-7.88-8-3.94-4,2-2,3.94,4Zm-7.88-8-3.94-4,2-2,3.93,4Zm-7.88-8-3.94-4,2-2,3.94,4Zm-7.87-8-3.94-4,2-2,3.94,4Zm-7.88-8-3.94-4,2-2,3.94,4Zm-7.88-8-3.94-4,2-2,3.94,4Z" style="fill:#fcfcfd"/><path d="M72.46,261.35l-1-5.53,2.77-.49,1,5.54Zm-1.94-11.07-1-5.53,2.77-.49,1,5.54Zm-2-11.07-1-5.53,2.76-.49,1,5.54Zm-1.95-11.06-1-5.54,2.77-.49,1,5.54Zm-1.94-11.07-1-5.54,2.77-.48,1,5.53Zm-2-11.07-1-5.54,2.77-.48,1,5.53Zm-1.95-11.07-1-5.53,2.77-.49,1,5.53Zm-1.94-11.07-1-5.53,2.76-.49,1,5.54Z" style="fill:#fcfcfd"/><path d="M287.81,321.93l-5.56-.8.4-2.78,5.57.8Zm-11.12-1.6-5.56-.8.4-2.78,5.56.8Zm-11.12-1.6-5.56-.8.4-2.78,5.56.8Zm-11.13-1.6-5.56-.8.4-2.78,5.56.8Zm-11.12-1.6-5.56-.8.4-2.79,5.56.8Zm-11.12-1.6-5.57-.81.41-2.78,5.56.8Zm-11.13-1.61-5.56-.8.4-2.78,5.56.8ZM210,310.72l-5.56-.8.4-2.78,5.56.8Zm-11.12-1.6-5.57-.8.4-2.78,5.57.8Zm-11.13-1.6-5.56-.8.4-2.78,5.56.8Zm-11.12-1.6-5.56-.8.4-2.78,5.56.8Zm-11.13-1.6-5.56-.8.4-2.78,5.56.8Zm-11.12-1.6-5.56-.8.4-2.79,5.56.81Zm-11.12-1.6-5.56-.8.4-2.79,5.56.8Zm-11.13-1.6-5.56-.81.4-2.78,5.56.8ZM121,297.91l-5.56-.8.4-2.78,5.56.8Zm-11.13-1.6-5.56-.8.4-2.78,5.57.8Z" style="fill:#fcfcfd"/></svg>