<svg xmlns="http://www.w3.org/2000/svg" xmlns:xlink="http://www.w3.org/1999/xlink" viewBox="0 0 400 400"><defs><linearGradient id="a" x1="60.85" y1="338.35" x2="338.27" y2="60.94" gradientUnits="userSpaceOnUse"><stop offset="0.18" stop-color="#31e2cf"/><stop offset="1" stop-color="#9debef"/></linearGradient><linearGradient id="b" x1="48.82" y1="344.99" x2="350.3" y2="344.99" gradientUnits="userSpaceOnUse"><stop offset="0" stop-color="#4db544"/><stop offset="0.82" stop-color="#b5da60"/></linearGradient><linearGradient id="c" x1="255.17" y1="288.03" x2="398.72" y2="144.47" gradientUnits="userSpaceOnUse"><stop offset="0" stop-color="#2642dc"/><stop offset="1" stop-color="#39cbff"/></linearGradient><linearGradient id="d" x1="263.86" y1="296.72" x2="407.41" y2="153.16" xlink:href="#c"/><linearGradient id="e" x1="228.91" y1="261.78" x2="372.47" y2="118.22" gradientTransform="translate(240.16 -114.13) rotate(45)" gradientUnits="userSpaceOnUse"><stop offset="0" stop-color="#b550ea"/><stop offset="1" stop-color="#88eebe"/></linearGradient><linearGradient id="f" x1="228.82" y1="261.69" x2="372.39" y2="118.13" gradientTransform="matrix(1, 0, 0, 1, 0, 0)" xlink:href="#e"/><linearGradient id="g" x1="274.76" y1="140.1" x2="297.37" y2="140.1" xlink:href="#b"/><linearGradient id="h" x1="232.08" y1="140.1" x2="254.69" y2="140.1" gradientUnits="userSpaceOnUse"><stop offset="0.18" stop-color="#b5da60"/><stop offset="1" stop-color="#4db544"/></linearGradient><linearGradient id="i" x1="240.42" y1="99.89" x2="289" y2="99.89" gradientUnits="userSpaceOnUse"><stop offset="0" stop-color="#ffdf7d"/><stop offset="1" stop-color="#feb422"/></linearGradient><linearGradient id="j" x1="107.49" y1="267.24" x2="130.09" y2="267.24" xlink:href="#b"/><linearGradient id="k" x1="64.8" y1="267.24" x2="87.41" y2="267.24" xlink:href="#h"/><linearGradient id="l" x1="142.09" y1="344.99" x2="304.34" y2="344.99" xlink:href="#b"/><linearGradient id="m" x1="247.96" y1="311" x2="247.96" y2="300.71" gradientUnits="userSpaceOnUse"><stop offset="0" stop-color="#6e57da"/><stop offset="1" stop-color="#ca88f6"/></linearGradient><linearGradient id="n" x1="72.42" y1="227.89" x2="121" y2="227.89" xlink:href="#i"/><linearGradient id="o" x1="132.04" y1="76.44" x2="156.1" y2="76.44" gradientUnits="userSpaceOnUse"><stop offset="0" stop-color="#f95830"/><stop offset="1" stop-color="#e04037"/></linearGradient><linearGradient id="p" x1="108.32" y1="161.31" x2="108.32" y2="169.64" gradientUnits="userSpaceOnUse"><stop offset="0" stop-color="#e04037"/><stop offset="1" stop-color="#f95830"/></linearGradient><linearGradient id="q" x1="108.32" y1="131.98" x2="108.32" y2="149.7" xlink:href="#p"/></defs><title>VE-Rewards-Icon</title><path d="M135.51,383.57c-23.17,0-51.62-16.42-63.21-36.5l-64-110.93c-11.59-20.07-11.59-52.92,0-73L72.3,52.21c11.59-20.07,40-36.49,63.21-36.49h128.1c23.18,0,51.62,16.42,63.21,36.49l64.05,110.94c11.59,20.07,11.59,52.92,0,73L326.82,347.07c-11.59,20.08-40,36.5-63.21,36.5Z" style="fill:url(#a)"/><path d="M48.82,306.41,72.3,347.07c11.59,20.08,40,36.5,63.21,36.5h128.1c23.18,0,51.62-16.42,63.21-36.5l23.48-40.66Z" style="fill:url(#b)"/><polygon points="233.74 299.84 225.79 291.9 284.71 232.98 302.27 250.54 357.75 195.06 365.7 203 302.27 266.43 284.71 248.87 233.74 299.84" style="fill:url(#c)"/><polygon points="368.95 228.35 357.71 228.35 357.71 202.87 332.23 202.87 332.23 191.63 368.95 191.63 368.95 228.35" style="fill:url(#d)"/><rect x="175.54" y="227.22" width="164.63" height="11.24" transform="translate(-89.12 250.53) rotate(-45)" style="fill:url(#e)"/><polygon points="323.28 203.96 312.05 203.96 312.05 178.47 286.56 178.47 286.56 167.23 323.28 167.23 323.28 203.96" style="fill:url(#f)"/><rect x="262.24" y="124.31" width="4.21" height="181.87" style="fill:#4db544"/><path d="M293,147c-4.28,4.28-10.77,5.38-17.39,3.63-1.75-6.61-.65-13.11,3.63-17.39s10.77-5.37,17.39-3.63C298.32,136.21,297.23,142.71,293,147Z" style="fill:url(#g)"/><rect x="262.67" y="152.89" width="17.01" height="4.21" transform="translate(-30.17 237.15) rotate(-45)" style="fill:#4db544"/><path d="M236.5,147c4.28,4.28,10.78,5.38,17.39,3.63,1.75-6.61.65-13.11-3.63-17.39s-10.77-5.37-17.39-3.63C231.13,136.21,232.22,142.71,236.5,147Z" style="fill:url(#h)"/><rect x="256.17" y="146.49" width="4.21" height="17.01" transform="translate(-33.95 228.03) rotate(-45)" style="fill:#4db544"/><path d="M289,99.89A24.29,24.29,0,1,1,264.7,75.6,24.3,24.3,0,0,1,289,99.89Z" style="fill:url(#i)"/><rect x="94.96" y="251.44" width="4.21" height="54.73" style="fill:#4db544"/><path d="M125.67,274.12c-4.28,4.28-10.77,5.37-17.39,3.62-1.74-6.61-.65-13.11,3.63-17.38s10.77-5.38,17.39-3.63C131,263.34,130,269.84,125.67,274.12Z" style="fill:url(#j)"/><rect x="95.39" y="280.02" width="17.01" height="4.21" transform="translate(-169.07 156.1) rotate(-45)" style="fill:#4db544"/><path d="M69.22,274.12c4.28,4.28,10.78,5.37,17.39,3.62,1.75-6.61.66-13.11-3.63-17.38S72.21,255,65.6,256.73C63.85,263.34,64.94,269.84,69.22,274.12Z" style="fill:url(#k)"/><rect x="88.89" y="273.63" width="4.21" height="17.01" transform="translate(-172.84 146.98) rotate(-45)" style="fill:#4db544"/><path d="M240.87,306.41H142.09l77.16,77.16h44.36c13.23,0,28.18-5.36,40.73-13.69Z" style="fill:url(#l)"/><path d="M141.43,304.69h1.48a.94.94,0,0,0,.89-1V286.1a1,1,0,0,0-.89-1h-1.48v-2H255.25a2.84,2.84,0,0,1,2.68,3v17.6a2.84,2.84,0,0,1-2.68,3H141.43Z" style="fill:#06497d"/><path d="M141.43,304.69h1.48a.94.94,0,0,0,.89-1V286.1a1,1,0,0,0-.89-1h-1.48v-2h68.31v23.56H141.43Z" style="fill:#021e4c"/><path d="M143.8,303.7V286.1a1,1,0,0,0-.89-1H255.25a1,1,0,0,1,.9,1v17.6a1,1,0,0,1-.9,1H142.91A.94.94,0,0,0,143.8,303.7Z" style="fill:#fff"/><path d="M143.8,303.7V286.1a1,1,0,0,0-.89-1h68.62a1,1,0,0,1,.89,1v17.6a.94.94,0,0,1-.89,1H142.91A.94.94,0,0,0,143.8,303.7Z" style="fill:#97d3f1"/><polygon points="243.6 311 247.96 308.29 252.31 311 252.31 300.71 247.96 300.71 243.6 300.71 243.6 311" style="fill:url(#m)"/><path d="M156,244.64a52.77,52.77,0,0,1-.19,18.67h73.24V244.64Z" style="fill:#4aa7de"/><path d="M156,244.64q.17,1,.3,2h66.06v-2Z" style="fill:#06497d;opacity:0.2"/><path d="M232,241.71H155.21a.84.84,0,0,0-.83.84v2.09h35.24v18.67H154.38v2.09a.83.83,0,0,0,.83.83H232a.83.83,0,0,0,.83-.83V242.55A.84.84,0,0,0,232,241.71Z" style="fill:#06497d"/><path d="M250.92,241.71H191.57a.85.85,0,0,1,.84.84V265.4a.84.84,0,0,1-.84.83h59.35a.83.83,0,0,0,.84-.83V242.55A.84.84,0,0,0,250.92,241.71Z" style="fill:#136fb7"/><path d="M250.92,241.71H191.57a.85.85,0,0,1,.84.84v2.79h59.35v-2.79A.84.84,0,0,0,250.92,241.71Z" style="fill:#06497d;opacity:0.4"/><path d="M243.29,281.15h-1.45a1,1,0,0,1-.87-1V269.28a1,1,0,0,1,.87-1h1.45v-2H151.11a2.85,2.85,0,0,0-2.61,3v10.85a2.86,2.86,0,0,0,2.61,3.06h92.18Z" style="fill:#06497d"/><path d="M243.29,281.15h-1.45a1,1,0,0,1-.87-1V269.28a1,1,0,0,1,.87-1h1.45v-2H195.46v17h47.83Z" style="fill:#136fb7"/><path d="M241,280.13V269.28a1,1,0,0,1,.87-1H151.11a1,1,0,0,0-.87,1v10.85a1,1,0,0,0,.87,1h90.73A1,1,0,0,1,241,280.13Z" style="fill:#63bdea"/><path d="M241,280.13V269.28a1,1,0,0,1,.87-1H193.72a1,1,0,0,0-.87,1v10.85a1,1,0,0,0,.87,1h48.12A1,1,0,0,1,241,280.13Z" style="fill:#fff"/><path d="M216.87,229.41v-1.73c14.13,0,27.79-2.82,38.48-7.93l.37,1.64C244.92,226.56,231.12,229.41,216.87,229.41Z" style="fill:#06497d"/><rect x="147.72" y="227.69" width="69.98" height="1.91" style="fill:#136fb7"/><rect x="147.72" y="229.6" width="69.98" height="12.29" style="fill:#136fb7"/><path d="M213.78,229.43H177.71c8.79-1.72,16.8-2.76,28.4-8h49.61C243.57,226.58,228.9,229.39,213.78,229.43Z" style="fill:#06497d"/><path d="M213.78,229.29H177.71c8.79-.89,16.8-1.42,28.4-4.1h49.61A205.13,205.13,0,0,1,213.78,229.29Z" style="fill:#136fb7"/><rect x="212.76" y="240.11" width="45.24" height="1.78" style="fill:#2e95d1"/><rect x="207.1" y="219.71" width="48.63" height="1.73" style="fill:#2e95d1"/><path d="M168.65,229.41v-1.73c14.12,0,27.79-2.82,38.48-7.93l.37,1.64C196.69,226.56,182.89,229.41,168.65,229.41Z" style="fill:#136fb7"/><rect x="211.72" y="229.5" width="44.01" height="10.57" style="fill:#fff"/><rect x="149.26" y="229.5" width="62.6" height="10.57" style="fill:#4aa7de"/><path d="M262.4,93H267a2.32,2.32,0,0,1,2.31,2.31h4.61A6.93,6.93,0,0,0,267,88.36v-2.3H262.4v2.3a6.92,6.92,0,0,0,0,13.84H267a2.31,2.31,0,1,1,0,4.61H262.4a2.31,2.31,0,0,1-2.3-2.31h-4.61a6.93,6.93,0,0,0,6.91,6.92v2.3H267v-2.3a6.92,6.92,0,1,0,0-13.84H262.4a2.31,2.31,0,0,1,0-4.61Z" style="fill:#fff"/><path d="M121,227.89A24.29,24.29,0,1,1,96.7,203.6,24.3,24.3,0,0,1,121,227.89Z" style="fill:url(#n)"/><path d="M94.4,221H99a2.32,2.32,0,0,1,2.31,2.31h4.61A6.93,6.93,0,0,0,99,216.36v-2.3H94.4v2.3a6.92,6.92,0,0,0,0,13.84H99a2.31,2.31,0,1,1,0,4.61H94.4a2.31,2.31,0,0,1-2.3-2.31H87.49a6.93,6.93,0,0,0,6.91,6.92v2.3H99v-2.3a6.92,6.92,0,1,0,0-13.84H94.4a2.31,2.31,0,0,1,0-4.61Z" style="fill:#fff"/><path d="M156.1,154.1a6.56,6.56,0,0,1-6.56,6.56H92.66a6.56,6.56,0,0,1-6.56-6.56V71a6.56,6.56,0,0,1,6.56-6.56H132L156.1,88.47Z" style="fill:#f3f3f3"/><polygon points="134.22 86.04 156.1 107.63 156.1 88.22 153.91 86.04 134.22 86.04" style="fill:#ececec"/><path d="M132,64.41v17.5a6.55,6.55,0,0,0,6.56,6.56h17.5Z" style="fill:url(#o)"/><rect x="96.08" y="87.15" width="24.9" height="2" style="fill:#b0d9ef"/><rect x="96.08" y="99.65" width="48.5" height="2" style="fill:#b0d9ef"/><rect x="96.08" y="105.29" width="48.5" height="2" style="fill:#b0d9ef"/><rect x="96.08" y="110.93" width="48.5" height="2" style="fill:#b0d9ef"/><rect x="96.08" y="116.57" width="48.5" height="2" style="fill:#b0d9ef"/><rect x="96.08" y="122.22" width="40.5" height="2" style="fill:#b0d9ef"/><polygon points="116.43 169.21 108.32 163.65 100.2 169.21 100.2 152.02 108.32 152.02 116.43 152.02 116.43 169.21" style="fill:url(#p)"/><circle cx="108.32" cy="145.51" r="12.25" style="fill:url(#q)"/><polygon points="108.32 138.2 110.65 141.05 114.33 141.09 113.56 144.69 115.81 147.6 112.52 149.24 111.65 152.82 108.32 151.26 104.98 152.82 104.11 149.24 100.82 147.6 103.08 144.69 102.3 141.09 105.98 141.05 108.32 138.2" style="fill:#fff"/></svg>